M48
; DRILL file KiCad 10.0.6 date 2026-09-24T22:50:13
; FORMAT={-:-/ absolute / metric / decimal}
; #@! TF.CreationDate,2026-09-24T22:50:13+00:00
; #@! TF.GenerationSoftware,Kicad,Pcbnew,10.0.6
; #@! TF.FileFunction,Plated,1,2,PTH
FMAT,2
METRIC
; #@! TA.AperFunction,Plated,PTH,ViaDrill
T1C0.300
; #@! TA.AperFunction,Plated,PTH,ViaDrill
T2C0.400
; #@! TA.AperFunction,Plated,PTH,ComponentDrill
T3C0.700
; #@! TA.AperFunction,Plated,PTH,ComponentDrill
T4C0.800
; #@! TA.AperFunction,Plated,PTH,ComponentDrill
T5C1.000
; #@! TA.AperFunction,Plated,PTH,ComponentDrill
T6C1.300
; #@! TA.AperFunction,Plated,PTH,ComponentDrill
T7C3.200
%
G90
G05
T1
X3.925Y-11.925
X3.925Y-19.925
X3.925Y-27.925
X3.925Y-35.925
X3.925Y-115.925
X3.925Y-123.925
X3.957Y-38.52
X5.391Y-53.95
X5.391Y-61.667
X5.391Y-77.417
X11.884Y-91.023
X11.925Y-3.925
X11.925Y-11.925
X11.925Y-19.925
X11.925Y-99.925
X11.925Y-107.925
X11.925Y-115.925
X11.925Y-123.925
X11.925Y-131.925
X19.131Y-51.765
X19.897Y-50.498
X19.909Y-97.555
X19.916Y-32.5
X19.925Y-99.925
X19.925Y-107.925
X19.925Y-115.925
X20.156Y-51.3
X20.165Y-19.716
X20.732Y-21.229
X20.795Y-89.371
X20.797Y-44.801
X20.799Y-86.814
X21.027Y-92.456
X21.07Y-91.323
X21.528Y-90.0
X22.962Y-59.04
X23.762Y-76.845
X24.085Y-97.56
X24.687Y-44.808
X24.919Y-23.7
X24.985Y-25.325
X26.203Y-27.833
X26.805Y-32.23
X27.925Y-99.925
X27.925Y-107.925
X27.925Y-123.925
X29.545Y-35.246
X29.836Y-46.669
X30.106Y-44.515
X30.247Y-45.607
X31.36Y-46.334
X31.825Y-28.985
X31.836Y-44.809
X32.551Y-32.494
X33.28Y-83.641
X33.358Y-52.607
X34.118Y-104.999
X34.232Y-54.405
X35.925Y-91.925
X35.925Y-107.925
X35.925Y-131.925
X36.837Y-39.654
X36.837Y-48.113
X38.507Y-43.052
X39.228Y-31.003
X40.016Y-46.234
X40.016Y-54.413
X40.428Y-74.826
X41.106Y-84.897
X43.797Y-64.12
X43.925Y-107.925
X43.925Y-115.925
X44.944Y-87.744
X44.969Y-90.031
X45.071Y-61.024
X45.301Y-56.13
X45.319Y-105.837
X45.362Y-84.634
X45.374Y-57.696
X45.9Y-65.561
X46.302Y-71.115
X46.726Y-98.758
X47.158Y-61.788
X47.542Y-69.371
X48.253Y-66.831
X50.127Y-55.886
X50.406Y-74.651
X50.865Y-65.561
X51.5Y-60.932
X51.925Y-27.925
X51.925Y-67.925
X51.925Y-107.925
X52.198Y-89.263
X52.529Y-94.888
X52.688Y-18.762
X53.5Y-24.784
X56.865Y-84.643
X56.865Y-92.105
X57.346Y-24.469
X57.913Y-18.03
X59.423Y-89.242
X59.925Y-11.925
X59.925Y-19.925
X59.925Y-27.925
X59.925Y-115.925
X60.605Y-61.588
X60.64Y-67.74
X61.732Y-72.157
X63.041Y-53.906
X63.041Y-61.774
X63.432Y-104.209
X63.66Y-21.378
X64.121Y-16.902
X64.208Y-85.295
X66.207Y-98.764
X66.673Y-87.755
X66.791Y-92.289
X67.925Y-27.925
X67.925Y-107.925
X68.74Y-21.687
X69.17Y-61.655
X69.233Y-16.954
X70.717Y-92.695
X70.787Y-98.758
X72.108Y-57.196
X72.377Y-101.395
X73.382Y-63.073
X73.579Y-72.025
X73.925Y-87.75
X74.615Y-56.595
X75.925Y-3.925
X75.925Y-11.925
X75.925Y-19.925
X75.925Y-27.925
X75.925Y-107.925
X75.925Y-115.925
X76.21Y-74.826
X76.322Y-64.802
X76.474Y-56.48
X77.135Y-56.957
X77.486Y-84.558
X77.915Y-64.799
X77.953Y-57.447
X78.765Y-87.885
X79.515Y-64.827
X79.688Y-103.817
X80.23Y-21.301
X80.418Y-62.269
X80.691Y-16.902
X80.799Y-34.294
X80.799Y-46.778
X81.097Y-64.34
X81.162Y-62.994
X81.357Y-98.754
X81.466Y-67.094
X81.469Y-45.244
X82.847Y-98.634
X83.029Y-55.592
X83.925Y-3.925
X83.925Y-19.925
X83.925Y-27.925
X83.925Y-35.925
X83.925Y-107.925
X83.925Y-131.925
X84.117Y-65.855
X88.57Y-93.863
X89.172Y-83.139
X90.026Y-95.231
X90.636Y-84.638
X91.925Y-11.925
X91.925Y-19.925
X91.925Y-27.925
X91.925Y-35.925
X91.925Y-107.925
X91.925Y-115.925
X91.974Y-84.864
X93.741Y-105.833
X94.519Y-83.139
X97.906Y-98.769
X99.925Y-3.925
X99.925Y-11.925
X99.925Y-19.925
X99.925Y-35.925
X99.925Y-107.925
X99.925Y-131.925
X101.487Y-84.661
X106.232Y-46.014
X106.87Y-84.625
X107.925Y-99.925
X107.925Y-107.925
X107.925Y-115.925
X108.308Y-70.269
X109.937Y-69.642
X111.839Y-84.834
X115.205Y-35.608
X115.925Y-3.925
X115.925Y-19.925
X115.925Y-27.925
X115.925Y-59.925
X115.925Y-67.925
X115.925Y-123.925
X115.925Y-131.925
X116.065Y-49.332
X116.382Y-46.998
X119.065Y-51.696
X119.075Y-44.681
X119.08Y-50.672
X119.093Y-82.515
X119.094Y-42.345
X119.094Y-83.525
X120.815Y-89.54
X121.709Y-42.942
X122.325Y-80.294
X122.384Y-48.928
X122.895Y-48.301
X122.899Y-78.38
X123.105Y-86.657
X123.489Y-116.79
X123.925Y-11.925
X123.925Y-19.925
X123.925Y-27.925
X123.925Y-35.925
X123.925Y-131.925
X124.41Y-116.841
X124.625Y-125.146
X125.156Y-124.296
X125.985Y-45.44
X127.5Y-120.316
X127.982Y-110.329
X129.421Y-110.485
X129.421Y-123.026
X131.925Y-11.925
X131.925Y-19.925
X131.925Y-27.925
X131.925Y-35.925
X131.925Y-59.925
X131.925Y-67.925
X131.925Y-91.925
X131.925Y-99.925
X131.925Y-107.925
X131.925Y-131.925
X132.178Y-42.505
X133.73Y-125.564
X133.733Y-126.836
X135.08Y-51.159
X135.09Y-46.089
X135.099Y-43.521
X135.219Y-84.104
X136.816Y-47.331
X137.308Y-86.58
X137.94Y-81.564
X139.925Y-3.925
X139.925Y-11.925
X139.925Y-19.925
X139.925Y-27.925
X139.925Y-35.925
X139.925Y-43.925
X139.925Y-59.925
X139.925Y-67.925
X139.925Y-75.925
X139.925Y-91.925
X139.925Y-107.925
X139.925Y-115.925
X139.925Y-131.925
X147.925Y-11.925
X147.925Y-27.925
X147.925Y-43.925
X147.925Y-59.925
X147.925Y-75.925
X147.925Y-91.925
X147.925Y-107.925
X147.925Y-115.925
X147.925Y-131.925
T2
X22.297Y-86.58
X23.878Y-83.641
X24.935Y-72.936
X25.385Y-48.125
X35.876Y-60.769
X41.178Y-106.205
X45.034Y-39.569
X48.519Y-56.748
X52.633Y-34.908
X54.567Y-101.47
X56.376Y-94.235
X56.376Y-105.84
X57.743Y-36.612
X62.823Y-36.612
X67.855Y-36.658
X68.999Y-102.387
X70.226Y-66.374
X74.216Y-36.54
X74.243Y-106.146
X77.384Y-59.757
X78.668Y-36.651
X80.047Y-102.43
X83.126Y-88.749
X83.672Y-18.333
X83.672Y-34.923
X87.668Y-90.151
X87.668Y-104.1
X93.194Y-102.428
X94.686Y-102.393
X99.0Y-21.937
X99.0Y-29.986
X104.821Y-104.07
X105.506Y-13.431
X107.757Y-87.496
X108.679Y-20.7
X108.743Y-25.85
X111.275Y-37.701
X118.212Y-32.335
X118.212Y-37.701
X122.807Y-43.212
X122.833Y-121.507
X124.44Y-76.138
X125.831Y-39.567
X128.336Y-23.871
X131.357Y-32.982
T3
X43.5Y-25.88
X43.5Y-28.42
X43.5Y-30.96
X43.5Y-33.5
T4
X19.5Y-66.5
X24.5Y-66.5
X30.92Y-18.0
X33.46Y-18.0
X36.0Y-18.0
T5
X5.925Y-20.425
X5.925Y-23.195
X5.925Y-25.965
X5.925Y-28.735
X5.925Y-31.505
X5.925Y-34.275
X5.925Y-37.045
X5.925Y-39.815
X5.925Y-42.585
X5.925Y-45.355
X5.925Y-48.125
X5.925Y-50.895
X5.925Y-83.275
X5.925Y-86.045
X5.925Y-88.815
X5.925Y-91.585
X5.925Y-94.355
X5.925Y-97.125
X5.925Y-99.895
X5.925Y-102.665
X5.925Y-105.435
X5.925Y-108.205
X5.925Y-110.975
X5.925Y-113.745
X8.765Y-19.04
X8.765Y-21.81
X8.765Y-24.58
X8.765Y-27.35
X8.765Y-30.12
X8.765Y-32.89
X8.765Y-35.66
X8.765Y-38.43
X8.765Y-41.2
X8.765Y-43.97
X8.765Y-46.74
X8.765Y-49.51
X8.765Y-52.28
X8.765Y-81.89
X8.765Y-84.66
X8.765Y-87.43
X8.765Y-90.2
X8.765Y-92.97
X8.765Y-95.74
X8.765Y-98.51
X8.765Y-101.28
X8.765Y-104.05
X8.765Y-106.82
X8.765Y-109.59
X8.765Y-112.36
X8.765Y-115.13
X69.115Y-77.355
X69.115Y-79.895
X71.655Y-77.355
X71.655Y-79.895
X74.195Y-77.355
X74.195Y-79.895
X76.735Y-77.355
X76.735Y-79.895
X79.275Y-77.355
X79.275Y-79.895
T6
X17.0Y-3.8
X20.406Y-111.61
X20.406Y-123.81
X21.887Y-133.61
X22.0Y-3.8
X26.406Y-125.81
X26.887Y-133.61
X27.0Y-3.8
X31.887Y-133.61
X32.0Y-3.8
X32.406Y-111.61
X32.406Y-123.81
X36.614Y-111.61
X36.614Y-123.81
X37.0Y-3.8
X38.109Y-133.61
X42.614Y-125.81
X43.109Y-133.61
X48.109Y-133.61
X48.614Y-111.61
X48.614Y-123.81
X52.823Y-111.61
X52.823Y-123.81
X53.505Y-3.75
X54.331Y-133.61
X58.505Y-3.75
X58.823Y-125.81
X59.331Y-133.61
X63.505Y-3.75
X64.331Y-133.61
X64.823Y-111.61
X64.823Y-123.81
X68.505Y-3.75
X69.032Y-111.61
X69.032Y-123.81
X70.552Y-133.61
X73.505Y-3.75
X75.032Y-125.81
X75.552Y-133.61
X78.505Y-3.75
X80.552Y-133.61
X81.032Y-111.61
X81.032Y-123.81
X85.241Y-111.61
X85.241Y-123.81
X86.774Y-133.61
X91.241Y-125.81
X91.774Y-133.61
X92.595Y-3.75
X96.774Y-133.61
X97.241Y-111.61
X97.241Y-123.81
X97.595Y-3.75
X101.449Y-111.61
X101.449Y-123.81
X102.595Y-3.75
X102.996Y-133.61
X107.449Y-125.81
X107.595Y-3.75
X107.996Y-133.61
X112.996Y-133.61
X113.449Y-111.61
X113.449Y-123.81
X126.595Y-3.75
X131.595Y-3.75
X146.14Y-14.454
X146.14Y-19.454
X146.14Y-24.454
X146.14Y-30.555
X146.14Y-35.555
X146.14Y-40.555
X146.14Y-46.655
X146.14Y-51.655
X146.14Y-56.655
X146.14Y-62.755
X146.14Y-67.755
X146.14Y-72.755
X146.14Y-78.855
X146.14Y-83.855
X146.14Y-88.855
X146.14Y-94.956
X146.14Y-99.956
X146.14Y-104.956
X146.14Y-113.715
X146.14Y-118.715
X146.14Y-123.715
T7
X7.345Y-12.11
X7.345Y-59.21
X7.345Y-74.96
X7.345Y-122.06
M30
