%TF.GenerationSoftware,KiCad,Pcbnew,10.0.6*%
%TF.CreationDate,2026-09-25T00:22:28+00:00*%
%TF.ProjectId,MACH3SIMPLE,4d414348-3353-4494-9d50-4c452e6b6963,rev?*%
%TF.SameCoordinates,Original*%
%TF.FileFunction,Legend,Bot*%
%TF.FilePolarity,Positive*%
%FSLAX46Y46*%
G04 Gerber Fmt 4.6, Leading zero omitted, Abs format (unit mm)*
G04 Created by KiCad (PCBNEW 10.0.6) date 2026-09-25 00:22:28*
%MOMM*%
%LPD*%
G01*
G04 APERTURE LIST*
G04 Aperture macros list*
%AMRoundRect*
0 Rectangle with rounded corners*
0 $1 Rounding radius*
0 $2 $3 $4 $5 $6 $7 $8 $9 X,Y pos of 4 corners*
0 Add a 4 corners polygon primitive as box body*
4,1,4,$2,$3,$4,$5,$6,$7,$8,$9,$2,$3,0*
0 Add four circle primitives for the rounded corners*
1,1,$1+$1,$2,$3*
1,1,$1+$1,$4,$5*
1,1,$1+$1,$6,$7*
1,1,$1+$1,$8,$9*
0 Add four rect primitives between the rounded corners*
20,1,$1+$1,$2,$3,$4,$5,0*
20,1,$1+$1,$4,$5,$6,$7,0*
20,1,$1+$1,$6,$7,$8,$9,0*
20,1,$1+$1,$8,$9,$2,$3,0*%
G04 Aperture macros list end*
%ADD10C,0.200000*%
%ADD11C,2.000000*%
%ADD12RoundRect,0.250000X1.050000X1.050000X-1.050000X1.050000X-1.050000X-1.050000X1.050000X-1.050000X0*%
%ADD13C,2.600000*%
%ADD14C,2.500000*%
%ADD15RoundRect,0.250000X1.000000X-1.000000X1.000000X1.000000X-1.000000X1.000000X-1.000000X-1.000000X0*%
%ADD16C,1.600000*%
%ADD17RoundRect,0.250000X1.050000X-1.050000X1.050000X1.050000X-1.050000X1.050000X-1.050000X-1.050000X0*%
%ADD18RoundRect,0.250000X-1.050000X-1.050000X1.050000X-1.050000X1.050000X1.050000X-1.050000X1.050000X0*%
%ADD19R,1.600000X1.600000*%
%ADD20C,4.000000*%
%ADD21R,2.000000X1.500000*%
%ADD22O,2.000000X1.500000*%
%ADD23RoundRect,0.250000X0.600000X-0.600000X0.600000X0.600000X-0.600000X0.600000X-0.600000X-0.600000X0*%
%ADD24C,1.700000*%
%ADD25C,3.200000*%
%ADD26C,1.440000*%
G04 APERTURE END LIST*
D10*
X22696923Y-131062219D02*
X22696923Y-130062219D01*
X22696923Y-130062219D02*
X22125495Y-131062219D01*
X22125495Y-131062219D02*
X22125495Y-130062219D01*
X21458828Y-130062219D02*
X21268352Y-130062219D01*
X21268352Y-130062219D02*
X21173114Y-130109838D01*
X21173114Y-130109838D02*
X21077876Y-130205076D01*
X21077876Y-130205076D02*
X21030257Y-130395552D01*
X21030257Y-130395552D02*
X21030257Y-130728885D01*
X21030257Y-130728885D02*
X21077876Y-130919361D01*
X21077876Y-130919361D02*
X21173114Y-131014600D01*
X21173114Y-131014600D02*
X21268352Y-131062219D01*
X21268352Y-131062219D02*
X21458828Y-131062219D01*
X21458828Y-131062219D02*
X21554066Y-131014600D01*
X21554066Y-131014600D02*
X21649304Y-130919361D01*
X21649304Y-130919361D02*
X21696923Y-130728885D01*
X21696923Y-130728885D02*
X21696923Y-130395552D01*
X21696923Y-130395552D02*
X21649304Y-130205076D01*
X21649304Y-130205076D02*
X21554066Y-130109838D01*
X21554066Y-130109838D02*
X21458828Y-130062219D01*
X27673114Y-130966980D02*
X27720733Y-131014600D01*
X27720733Y-131014600D02*
X27863590Y-131062219D01*
X27863590Y-131062219D02*
X27958828Y-131062219D01*
X27958828Y-131062219D02*
X28101685Y-131014600D01*
X28101685Y-131014600D02*
X28196923Y-130919361D01*
X28196923Y-130919361D02*
X28244542Y-130824123D01*
X28244542Y-130824123D02*
X28292161Y-130633647D01*
X28292161Y-130633647D02*
X28292161Y-130490790D01*
X28292161Y-130490790D02*
X28244542Y-130300314D01*
X28244542Y-130300314D02*
X28196923Y-130205076D01*
X28196923Y-130205076D02*
X28101685Y-130109838D01*
X28101685Y-130109838D02*
X27958828Y-130062219D01*
X27958828Y-130062219D02*
X27863590Y-130062219D01*
X27863590Y-130062219D02*
X27720733Y-130109838D01*
X27720733Y-130109838D02*
X27673114Y-130157457D01*
X27054066Y-130062219D02*
X26863590Y-130062219D01*
X26863590Y-130062219D02*
X26768352Y-130109838D01*
X26768352Y-130109838D02*
X26673114Y-130205076D01*
X26673114Y-130205076D02*
X26625495Y-130395552D01*
X26625495Y-130395552D02*
X26625495Y-130728885D01*
X26625495Y-130728885D02*
X26673114Y-130919361D01*
X26673114Y-130919361D02*
X26768352Y-131014600D01*
X26768352Y-131014600D02*
X26863590Y-131062219D01*
X26863590Y-131062219D02*
X27054066Y-131062219D01*
X27054066Y-131062219D02*
X27149304Y-131014600D01*
X27149304Y-131014600D02*
X27244542Y-130919361D01*
X27244542Y-130919361D02*
X27292161Y-130728885D01*
X27292161Y-130728885D02*
X27292161Y-130395552D01*
X27292161Y-130395552D02*
X27244542Y-130205076D01*
X27244542Y-130205076D02*
X27149304Y-130109838D01*
X27149304Y-130109838D02*
X27054066Y-130062219D01*
X26196923Y-131062219D02*
X26196923Y-130062219D01*
X26196923Y-130062219D02*
X25863590Y-130776504D01*
X25863590Y-130776504D02*
X25530257Y-130062219D01*
X25530257Y-130062219D02*
X25530257Y-131062219D01*
X32673113Y-131062219D02*
X32673113Y-130062219D01*
X32673113Y-130062219D02*
X32101685Y-131062219D01*
X32101685Y-131062219D02*
X32101685Y-130062219D01*
X31054066Y-130966980D02*
X31101685Y-131014600D01*
X31101685Y-131014600D02*
X31244542Y-131062219D01*
X31244542Y-131062219D02*
X31339780Y-131062219D01*
X31339780Y-131062219D02*
X31482637Y-131014600D01*
X31482637Y-131014600D02*
X31577875Y-130919361D01*
X31577875Y-130919361D02*
X31625494Y-130824123D01*
X31625494Y-130824123D02*
X31673113Y-130633647D01*
X31673113Y-130633647D02*
X31673113Y-130490790D01*
X31673113Y-130490790D02*
X31625494Y-130300314D01*
X31625494Y-130300314D02*
X31577875Y-130205076D01*
X31577875Y-130205076D02*
X31482637Y-130109838D01*
X31482637Y-130109838D02*
X31339780Y-130062219D01*
X31339780Y-130062219D02*
X31244542Y-130062219D01*
X31244542Y-130062219D02*
X31101685Y-130109838D01*
X31101685Y-130109838D02*
X31054066Y-130157457D01*
X38918623Y-131062219D02*
X38918623Y-130062219D01*
X38918623Y-130062219D02*
X38347195Y-131062219D01*
X38347195Y-131062219D02*
X38347195Y-130062219D01*
X37680528Y-130062219D02*
X37490052Y-130062219D01*
X37490052Y-130062219D02*
X37394814Y-130109838D01*
X37394814Y-130109838D02*
X37299576Y-130205076D01*
X37299576Y-130205076D02*
X37251957Y-130395552D01*
X37251957Y-130395552D02*
X37251957Y-130728885D01*
X37251957Y-130728885D02*
X37299576Y-130919361D01*
X37299576Y-130919361D02*
X37394814Y-131014600D01*
X37394814Y-131014600D02*
X37490052Y-131062219D01*
X37490052Y-131062219D02*
X37680528Y-131062219D01*
X37680528Y-131062219D02*
X37775766Y-131014600D01*
X37775766Y-131014600D02*
X37871004Y-130919361D01*
X37871004Y-130919361D02*
X37918623Y-130728885D01*
X37918623Y-130728885D02*
X37918623Y-130395552D01*
X37918623Y-130395552D02*
X37871004Y-130205076D01*
X37871004Y-130205076D02*
X37775766Y-130109838D01*
X37775766Y-130109838D02*
X37680528Y-130062219D01*
X43894814Y-130966980D02*
X43942433Y-131014600D01*
X43942433Y-131014600D02*
X44085290Y-131062219D01*
X44085290Y-131062219D02*
X44180528Y-131062219D01*
X44180528Y-131062219D02*
X44323385Y-131014600D01*
X44323385Y-131014600D02*
X44418623Y-130919361D01*
X44418623Y-130919361D02*
X44466242Y-130824123D01*
X44466242Y-130824123D02*
X44513861Y-130633647D01*
X44513861Y-130633647D02*
X44513861Y-130490790D01*
X44513861Y-130490790D02*
X44466242Y-130300314D01*
X44466242Y-130300314D02*
X44418623Y-130205076D01*
X44418623Y-130205076D02*
X44323385Y-130109838D01*
X44323385Y-130109838D02*
X44180528Y-130062219D01*
X44180528Y-130062219D02*
X44085290Y-130062219D01*
X44085290Y-130062219D02*
X43942433Y-130109838D01*
X43942433Y-130109838D02*
X43894814Y-130157457D01*
X43275766Y-130062219D02*
X43085290Y-130062219D01*
X43085290Y-130062219D02*
X42990052Y-130109838D01*
X42990052Y-130109838D02*
X42894814Y-130205076D01*
X42894814Y-130205076D02*
X42847195Y-130395552D01*
X42847195Y-130395552D02*
X42847195Y-130728885D01*
X42847195Y-130728885D02*
X42894814Y-130919361D01*
X42894814Y-130919361D02*
X42990052Y-131014600D01*
X42990052Y-131014600D02*
X43085290Y-131062219D01*
X43085290Y-131062219D02*
X43275766Y-131062219D01*
X43275766Y-131062219D02*
X43371004Y-131014600D01*
X43371004Y-131014600D02*
X43466242Y-130919361D01*
X43466242Y-130919361D02*
X43513861Y-130728885D01*
X43513861Y-130728885D02*
X43513861Y-130395552D01*
X43513861Y-130395552D02*
X43466242Y-130205076D01*
X43466242Y-130205076D02*
X43371004Y-130109838D01*
X43371004Y-130109838D02*
X43275766Y-130062219D01*
X42418623Y-131062219D02*
X42418623Y-130062219D01*
X42418623Y-130062219D02*
X42085290Y-130776504D01*
X42085290Y-130776504D02*
X41751957Y-130062219D01*
X41751957Y-130062219D02*
X41751957Y-131062219D01*
X48894813Y-131062219D02*
X48894813Y-130062219D01*
X48894813Y-130062219D02*
X48323385Y-131062219D01*
X48323385Y-131062219D02*
X48323385Y-130062219D01*
X47275766Y-130966980D02*
X47323385Y-131014600D01*
X47323385Y-131014600D02*
X47466242Y-131062219D01*
X47466242Y-131062219D02*
X47561480Y-131062219D01*
X47561480Y-131062219D02*
X47704337Y-131014600D01*
X47704337Y-131014600D02*
X47799575Y-130919361D01*
X47799575Y-130919361D02*
X47847194Y-130824123D01*
X47847194Y-130824123D02*
X47894813Y-130633647D01*
X47894813Y-130633647D02*
X47894813Y-130490790D01*
X47894813Y-130490790D02*
X47847194Y-130300314D01*
X47847194Y-130300314D02*
X47799575Y-130205076D01*
X47799575Y-130205076D02*
X47704337Y-130109838D01*
X47704337Y-130109838D02*
X47561480Y-130062219D01*
X47561480Y-130062219D02*
X47466242Y-130062219D01*
X47466242Y-130062219D02*
X47323385Y-130109838D01*
X47323385Y-130109838D02*
X47275766Y-130157457D01*
X55140323Y-131062219D02*
X55140323Y-130062219D01*
X55140323Y-130062219D02*
X54568895Y-131062219D01*
X54568895Y-131062219D02*
X54568895Y-130062219D01*
X53902228Y-130062219D02*
X53711752Y-130062219D01*
X53711752Y-130062219D02*
X53616514Y-130109838D01*
X53616514Y-130109838D02*
X53521276Y-130205076D01*
X53521276Y-130205076D02*
X53473657Y-130395552D01*
X53473657Y-130395552D02*
X53473657Y-130728885D01*
X53473657Y-130728885D02*
X53521276Y-130919361D01*
X53521276Y-130919361D02*
X53616514Y-131014600D01*
X53616514Y-131014600D02*
X53711752Y-131062219D01*
X53711752Y-131062219D02*
X53902228Y-131062219D01*
X53902228Y-131062219D02*
X53997466Y-131014600D01*
X53997466Y-131014600D02*
X54092704Y-130919361D01*
X54092704Y-130919361D02*
X54140323Y-130728885D01*
X54140323Y-130728885D02*
X54140323Y-130395552D01*
X54140323Y-130395552D02*
X54092704Y-130205076D01*
X54092704Y-130205076D02*
X53997466Y-130109838D01*
X53997466Y-130109838D02*
X53902228Y-130062219D01*
X60116514Y-130966980D02*
X60164133Y-131014600D01*
X60164133Y-131014600D02*
X60306990Y-131062219D01*
X60306990Y-131062219D02*
X60402228Y-131062219D01*
X60402228Y-131062219D02*
X60545085Y-131014600D01*
X60545085Y-131014600D02*
X60640323Y-130919361D01*
X60640323Y-130919361D02*
X60687942Y-130824123D01*
X60687942Y-130824123D02*
X60735561Y-130633647D01*
X60735561Y-130633647D02*
X60735561Y-130490790D01*
X60735561Y-130490790D02*
X60687942Y-130300314D01*
X60687942Y-130300314D02*
X60640323Y-130205076D01*
X60640323Y-130205076D02*
X60545085Y-130109838D01*
X60545085Y-130109838D02*
X60402228Y-130062219D01*
X60402228Y-130062219D02*
X60306990Y-130062219D01*
X60306990Y-130062219D02*
X60164133Y-130109838D01*
X60164133Y-130109838D02*
X60116514Y-130157457D01*
X59497466Y-130062219D02*
X59306990Y-130062219D01*
X59306990Y-130062219D02*
X59211752Y-130109838D01*
X59211752Y-130109838D02*
X59116514Y-130205076D01*
X59116514Y-130205076D02*
X59068895Y-130395552D01*
X59068895Y-130395552D02*
X59068895Y-130728885D01*
X59068895Y-130728885D02*
X59116514Y-130919361D01*
X59116514Y-130919361D02*
X59211752Y-131014600D01*
X59211752Y-131014600D02*
X59306990Y-131062219D01*
X59306990Y-131062219D02*
X59497466Y-131062219D01*
X59497466Y-131062219D02*
X59592704Y-131014600D01*
X59592704Y-131014600D02*
X59687942Y-130919361D01*
X59687942Y-130919361D02*
X59735561Y-130728885D01*
X59735561Y-130728885D02*
X59735561Y-130395552D01*
X59735561Y-130395552D02*
X59687942Y-130205076D01*
X59687942Y-130205076D02*
X59592704Y-130109838D01*
X59592704Y-130109838D02*
X59497466Y-130062219D01*
X58640323Y-131062219D02*
X58640323Y-130062219D01*
X58640323Y-130062219D02*
X58306990Y-130776504D01*
X58306990Y-130776504D02*
X57973657Y-130062219D01*
X57973657Y-130062219D02*
X57973657Y-131062219D01*
X65116513Y-131062219D02*
X65116513Y-130062219D01*
X65116513Y-130062219D02*
X64545085Y-131062219D01*
X64545085Y-131062219D02*
X64545085Y-130062219D01*
X63497466Y-130966980D02*
X63545085Y-131014600D01*
X63545085Y-131014600D02*
X63687942Y-131062219D01*
X63687942Y-131062219D02*
X63783180Y-131062219D01*
X63783180Y-131062219D02*
X63926037Y-131014600D01*
X63926037Y-131014600D02*
X64021275Y-130919361D01*
X64021275Y-130919361D02*
X64068894Y-130824123D01*
X64068894Y-130824123D02*
X64116513Y-130633647D01*
X64116513Y-130633647D02*
X64116513Y-130490790D01*
X64116513Y-130490790D02*
X64068894Y-130300314D01*
X64068894Y-130300314D02*
X64021275Y-130205076D01*
X64021275Y-130205076D02*
X63926037Y-130109838D01*
X63926037Y-130109838D02*
X63783180Y-130062219D01*
X63783180Y-130062219D02*
X63687942Y-130062219D01*
X63687942Y-130062219D02*
X63545085Y-130109838D01*
X63545085Y-130109838D02*
X63497466Y-130157457D01*
X71362023Y-131062219D02*
X71362023Y-130062219D01*
X71362023Y-130062219D02*
X70790595Y-131062219D01*
X70790595Y-131062219D02*
X70790595Y-130062219D01*
X70123928Y-130062219D02*
X69933452Y-130062219D01*
X69933452Y-130062219D02*
X69838214Y-130109838D01*
X69838214Y-130109838D02*
X69742976Y-130205076D01*
X69742976Y-130205076D02*
X69695357Y-130395552D01*
X69695357Y-130395552D02*
X69695357Y-130728885D01*
X69695357Y-130728885D02*
X69742976Y-130919361D01*
X69742976Y-130919361D02*
X69838214Y-131014600D01*
X69838214Y-131014600D02*
X69933452Y-131062219D01*
X69933452Y-131062219D02*
X70123928Y-131062219D01*
X70123928Y-131062219D02*
X70219166Y-131014600D01*
X70219166Y-131014600D02*
X70314404Y-130919361D01*
X70314404Y-130919361D02*
X70362023Y-130728885D01*
X70362023Y-130728885D02*
X70362023Y-130395552D01*
X70362023Y-130395552D02*
X70314404Y-130205076D01*
X70314404Y-130205076D02*
X70219166Y-130109838D01*
X70219166Y-130109838D02*
X70123928Y-130062219D01*
X76338214Y-130966980D02*
X76385833Y-131014600D01*
X76385833Y-131014600D02*
X76528690Y-131062219D01*
X76528690Y-131062219D02*
X76623928Y-131062219D01*
X76623928Y-131062219D02*
X76766785Y-131014600D01*
X76766785Y-131014600D02*
X76862023Y-130919361D01*
X76862023Y-130919361D02*
X76909642Y-130824123D01*
X76909642Y-130824123D02*
X76957261Y-130633647D01*
X76957261Y-130633647D02*
X76957261Y-130490790D01*
X76957261Y-130490790D02*
X76909642Y-130300314D01*
X76909642Y-130300314D02*
X76862023Y-130205076D01*
X76862023Y-130205076D02*
X76766785Y-130109838D01*
X76766785Y-130109838D02*
X76623928Y-130062219D01*
X76623928Y-130062219D02*
X76528690Y-130062219D01*
X76528690Y-130062219D02*
X76385833Y-130109838D01*
X76385833Y-130109838D02*
X76338214Y-130157457D01*
X75719166Y-130062219D02*
X75528690Y-130062219D01*
X75528690Y-130062219D02*
X75433452Y-130109838D01*
X75433452Y-130109838D02*
X75338214Y-130205076D01*
X75338214Y-130205076D02*
X75290595Y-130395552D01*
X75290595Y-130395552D02*
X75290595Y-130728885D01*
X75290595Y-130728885D02*
X75338214Y-130919361D01*
X75338214Y-130919361D02*
X75433452Y-131014600D01*
X75433452Y-131014600D02*
X75528690Y-131062219D01*
X75528690Y-131062219D02*
X75719166Y-131062219D01*
X75719166Y-131062219D02*
X75814404Y-131014600D01*
X75814404Y-131014600D02*
X75909642Y-130919361D01*
X75909642Y-130919361D02*
X75957261Y-130728885D01*
X75957261Y-130728885D02*
X75957261Y-130395552D01*
X75957261Y-130395552D02*
X75909642Y-130205076D01*
X75909642Y-130205076D02*
X75814404Y-130109838D01*
X75814404Y-130109838D02*
X75719166Y-130062219D01*
X74862023Y-131062219D02*
X74862023Y-130062219D01*
X74862023Y-130062219D02*
X74528690Y-130776504D01*
X74528690Y-130776504D02*
X74195357Y-130062219D01*
X74195357Y-130062219D02*
X74195357Y-131062219D01*
X81338213Y-131062219D02*
X81338213Y-130062219D01*
X81338213Y-130062219D02*
X80766785Y-131062219D01*
X80766785Y-131062219D02*
X80766785Y-130062219D01*
X79719166Y-130966980D02*
X79766785Y-131014600D01*
X79766785Y-131014600D02*
X79909642Y-131062219D01*
X79909642Y-131062219D02*
X80004880Y-131062219D01*
X80004880Y-131062219D02*
X80147737Y-131014600D01*
X80147737Y-131014600D02*
X80242975Y-130919361D01*
X80242975Y-130919361D02*
X80290594Y-130824123D01*
X80290594Y-130824123D02*
X80338213Y-130633647D01*
X80338213Y-130633647D02*
X80338213Y-130490790D01*
X80338213Y-130490790D02*
X80290594Y-130300314D01*
X80290594Y-130300314D02*
X80242975Y-130205076D01*
X80242975Y-130205076D02*
X80147737Y-130109838D01*
X80147737Y-130109838D02*
X80004880Y-130062219D01*
X80004880Y-130062219D02*
X79909642Y-130062219D01*
X79909642Y-130062219D02*
X79766785Y-130109838D01*
X79766785Y-130109838D02*
X79719166Y-130157457D01*
X87583723Y-131062219D02*
X87583723Y-130062219D01*
X87583723Y-130062219D02*
X87012295Y-131062219D01*
X87012295Y-131062219D02*
X87012295Y-130062219D01*
X86345628Y-130062219D02*
X86155152Y-130062219D01*
X86155152Y-130062219D02*
X86059914Y-130109838D01*
X86059914Y-130109838D02*
X85964676Y-130205076D01*
X85964676Y-130205076D02*
X85917057Y-130395552D01*
X85917057Y-130395552D02*
X85917057Y-130728885D01*
X85917057Y-130728885D02*
X85964676Y-130919361D01*
X85964676Y-130919361D02*
X86059914Y-131014600D01*
X86059914Y-131014600D02*
X86155152Y-131062219D01*
X86155152Y-131062219D02*
X86345628Y-131062219D01*
X86345628Y-131062219D02*
X86440866Y-131014600D01*
X86440866Y-131014600D02*
X86536104Y-130919361D01*
X86536104Y-130919361D02*
X86583723Y-130728885D01*
X86583723Y-130728885D02*
X86583723Y-130395552D01*
X86583723Y-130395552D02*
X86536104Y-130205076D01*
X86536104Y-130205076D02*
X86440866Y-130109838D01*
X86440866Y-130109838D02*
X86345628Y-130062219D01*
X92559914Y-130966980D02*
X92607533Y-131014600D01*
X92607533Y-131014600D02*
X92750390Y-131062219D01*
X92750390Y-131062219D02*
X92845628Y-131062219D01*
X92845628Y-131062219D02*
X92988485Y-131014600D01*
X92988485Y-131014600D02*
X93083723Y-130919361D01*
X93083723Y-130919361D02*
X93131342Y-130824123D01*
X93131342Y-130824123D02*
X93178961Y-130633647D01*
X93178961Y-130633647D02*
X93178961Y-130490790D01*
X93178961Y-130490790D02*
X93131342Y-130300314D01*
X93131342Y-130300314D02*
X93083723Y-130205076D01*
X93083723Y-130205076D02*
X92988485Y-130109838D01*
X92988485Y-130109838D02*
X92845628Y-130062219D01*
X92845628Y-130062219D02*
X92750390Y-130062219D01*
X92750390Y-130062219D02*
X92607533Y-130109838D01*
X92607533Y-130109838D02*
X92559914Y-130157457D01*
X91940866Y-130062219D02*
X91750390Y-130062219D01*
X91750390Y-130062219D02*
X91655152Y-130109838D01*
X91655152Y-130109838D02*
X91559914Y-130205076D01*
X91559914Y-130205076D02*
X91512295Y-130395552D01*
X91512295Y-130395552D02*
X91512295Y-130728885D01*
X91512295Y-130728885D02*
X91559914Y-130919361D01*
X91559914Y-130919361D02*
X91655152Y-131014600D01*
X91655152Y-131014600D02*
X91750390Y-131062219D01*
X91750390Y-131062219D02*
X91940866Y-131062219D01*
X91940866Y-131062219D02*
X92036104Y-131014600D01*
X92036104Y-131014600D02*
X92131342Y-130919361D01*
X92131342Y-130919361D02*
X92178961Y-130728885D01*
X92178961Y-130728885D02*
X92178961Y-130395552D01*
X92178961Y-130395552D02*
X92131342Y-130205076D01*
X92131342Y-130205076D02*
X92036104Y-130109838D01*
X92036104Y-130109838D02*
X91940866Y-130062219D01*
X91083723Y-131062219D02*
X91083723Y-130062219D01*
X91083723Y-130062219D02*
X90750390Y-130776504D01*
X90750390Y-130776504D02*
X90417057Y-130062219D01*
X90417057Y-130062219D02*
X90417057Y-131062219D01*
X97559913Y-131062219D02*
X97559913Y-130062219D01*
X97559913Y-130062219D02*
X96988485Y-131062219D01*
X96988485Y-131062219D02*
X96988485Y-130062219D01*
X95940866Y-130966980D02*
X95988485Y-131014600D01*
X95988485Y-131014600D02*
X96131342Y-131062219D01*
X96131342Y-131062219D02*
X96226580Y-131062219D01*
X96226580Y-131062219D02*
X96369437Y-131014600D01*
X96369437Y-131014600D02*
X96464675Y-130919361D01*
X96464675Y-130919361D02*
X96512294Y-130824123D01*
X96512294Y-130824123D02*
X96559913Y-130633647D01*
X96559913Y-130633647D02*
X96559913Y-130490790D01*
X96559913Y-130490790D02*
X96512294Y-130300314D01*
X96512294Y-130300314D02*
X96464675Y-130205076D01*
X96464675Y-130205076D02*
X96369437Y-130109838D01*
X96369437Y-130109838D02*
X96226580Y-130062219D01*
X96226580Y-130062219D02*
X96131342Y-130062219D01*
X96131342Y-130062219D02*
X95988485Y-130109838D01*
X95988485Y-130109838D02*
X95940866Y-130157457D01*
X103805523Y-131062219D02*
X103805523Y-130062219D01*
X103805523Y-130062219D02*
X103234095Y-131062219D01*
X103234095Y-131062219D02*
X103234095Y-130062219D01*
X102567428Y-130062219D02*
X102376952Y-130062219D01*
X102376952Y-130062219D02*
X102281714Y-130109838D01*
X102281714Y-130109838D02*
X102186476Y-130205076D01*
X102186476Y-130205076D02*
X102138857Y-130395552D01*
X102138857Y-130395552D02*
X102138857Y-130728885D01*
X102138857Y-130728885D02*
X102186476Y-130919361D01*
X102186476Y-130919361D02*
X102281714Y-131014600D01*
X102281714Y-131014600D02*
X102376952Y-131062219D01*
X102376952Y-131062219D02*
X102567428Y-131062219D01*
X102567428Y-131062219D02*
X102662666Y-131014600D01*
X102662666Y-131014600D02*
X102757904Y-130919361D01*
X102757904Y-130919361D02*
X102805523Y-130728885D01*
X102805523Y-130728885D02*
X102805523Y-130395552D01*
X102805523Y-130395552D02*
X102757904Y-130205076D01*
X102757904Y-130205076D02*
X102662666Y-130109838D01*
X102662666Y-130109838D02*
X102567428Y-130062219D01*
X108781714Y-130966980D02*
X108829333Y-131014600D01*
X108829333Y-131014600D02*
X108972190Y-131062219D01*
X108972190Y-131062219D02*
X109067428Y-131062219D01*
X109067428Y-131062219D02*
X109210285Y-131014600D01*
X109210285Y-131014600D02*
X109305523Y-130919361D01*
X109305523Y-130919361D02*
X109353142Y-130824123D01*
X109353142Y-130824123D02*
X109400761Y-130633647D01*
X109400761Y-130633647D02*
X109400761Y-130490790D01*
X109400761Y-130490790D02*
X109353142Y-130300314D01*
X109353142Y-130300314D02*
X109305523Y-130205076D01*
X109305523Y-130205076D02*
X109210285Y-130109838D01*
X109210285Y-130109838D02*
X109067428Y-130062219D01*
X109067428Y-130062219D02*
X108972190Y-130062219D01*
X108972190Y-130062219D02*
X108829333Y-130109838D01*
X108829333Y-130109838D02*
X108781714Y-130157457D01*
X108162666Y-130062219D02*
X107972190Y-130062219D01*
X107972190Y-130062219D02*
X107876952Y-130109838D01*
X107876952Y-130109838D02*
X107781714Y-130205076D01*
X107781714Y-130205076D02*
X107734095Y-130395552D01*
X107734095Y-130395552D02*
X107734095Y-130728885D01*
X107734095Y-130728885D02*
X107781714Y-130919361D01*
X107781714Y-130919361D02*
X107876952Y-131014600D01*
X107876952Y-131014600D02*
X107972190Y-131062219D01*
X107972190Y-131062219D02*
X108162666Y-131062219D01*
X108162666Y-131062219D02*
X108257904Y-131014600D01*
X108257904Y-131014600D02*
X108353142Y-130919361D01*
X108353142Y-130919361D02*
X108400761Y-130728885D01*
X108400761Y-130728885D02*
X108400761Y-130395552D01*
X108400761Y-130395552D02*
X108353142Y-130205076D01*
X108353142Y-130205076D02*
X108257904Y-130109838D01*
X108257904Y-130109838D02*
X108162666Y-130062219D01*
X107305523Y-131062219D02*
X107305523Y-130062219D01*
X107305523Y-130062219D02*
X106972190Y-130776504D01*
X106972190Y-130776504D02*
X106638857Y-130062219D01*
X106638857Y-130062219D02*
X106638857Y-131062219D01*
X113781713Y-131062219D02*
X113781713Y-130062219D01*
X113781713Y-130062219D02*
X113210285Y-131062219D01*
X113210285Y-131062219D02*
X113210285Y-130062219D01*
X112162666Y-130966980D02*
X112210285Y-131014600D01*
X112210285Y-131014600D02*
X112353142Y-131062219D01*
X112353142Y-131062219D02*
X112448380Y-131062219D01*
X112448380Y-131062219D02*
X112591237Y-131014600D01*
X112591237Y-131014600D02*
X112686475Y-130919361D01*
X112686475Y-130919361D02*
X112734094Y-130824123D01*
X112734094Y-130824123D02*
X112781713Y-130633647D01*
X112781713Y-130633647D02*
X112781713Y-130490790D01*
X112781713Y-130490790D02*
X112734094Y-130300314D01*
X112734094Y-130300314D02*
X112686475Y-130205076D01*
X112686475Y-130205076D02*
X112591237Y-130109838D01*
X112591237Y-130109838D02*
X112448380Y-130062219D01*
X112448380Y-130062219D02*
X112353142Y-130062219D01*
X112353142Y-130062219D02*
X112210285Y-130109838D01*
X112210285Y-130109838D02*
X112162666Y-130157457D01*
X29544542Y-129154742D02*
X29944542Y-128583314D01*
X30230256Y-129154742D02*
X30230256Y-127954742D01*
X30230256Y-127954742D02*
X29773113Y-127954742D01*
X29773113Y-127954742D02*
X29658828Y-128011885D01*
X29658828Y-128011885D02*
X29601685Y-128069028D01*
X29601685Y-128069028D02*
X29544542Y-128183314D01*
X29544542Y-128183314D02*
X29544542Y-128354742D01*
X29544542Y-128354742D02*
X29601685Y-128469028D01*
X29601685Y-128469028D02*
X29658828Y-128526171D01*
X29658828Y-128526171D02*
X29773113Y-128583314D01*
X29773113Y-128583314D02*
X30230256Y-128583314D01*
X29030256Y-128526171D02*
X28630256Y-128526171D01*
X28458828Y-129154742D02*
X29030256Y-129154742D01*
X29030256Y-129154742D02*
X29030256Y-127954742D01*
X29030256Y-127954742D02*
X28458828Y-127954742D01*
X27373114Y-129154742D02*
X27944542Y-129154742D01*
X27944542Y-129154742D02*
X27944542Y-127954742D01*
X27030256Y-128811885D02*
X26458828Y-128811885D01*
X27144542Y-129154742D02*
X26744542Y-127954742D01*
X26744542Y-127954742D02*
X26344542Y-129154742D01*
X25715971Y-128583314D02*
X25715971Y-129154742D01*
X26115971Y-127954742D02*
X25715971Y-128583314D01*
X25715971Y-128583314D02*
X25315971Y-127954742D01*
X24058828Y-128811885D02*
X23487400Y-128811885D01*
X24173114Y-129154742D02*
X23773114Y-127954742D01*
X23773114Y-127954742D02*
X23373114Y-129154742D01*
X45851956Y-129154742D02*
X46251956Y-128583314D01*
X46537670Y-129154742D02*
X46537670Y-127954742D01*
X46537670Y-127954742D02*
X46080527Y-127954742D01*
X46080527Y-127954742D02*
X45966242Y-128011885D01*
X45966242Y-128011885D02*
X45909099Y-128069028D01*
X45909099Y-128069028D02*
X45851956Y-128183314D01*
X45851956Y-128183314D02*
X45851956Y-128354742D01*
X45851956Y-128354742D02*
X45909099Y-128469028D01*
X45909099Y-128469028D02*
X45966242Y-128526171D01*
X45966242Y-128526171D02*
X46080527Y-128583314D01*
X46080527Y-128583314D02*
X46537670Y-128583314D01*
X45337670Y-128526171D02*
X44937670Y-128526171D01*
X44766242Y-129154742D02*
X45337670Y-129154742D01*
X45337670Y-129154742D02*
X45337670Y-127954742D01*
X45337670Y-127954742D02*
X44766242Y-127954742D01*
X43680528Y-129154742D02*
X44251956Y-129154742D01*
X44251956Y-129154742D02*
X44251956Y-127954742D01*
X43337670Y-128811885D02*
X42766242Y-128811885D01*
X43451956Y-129154742D02*
X43051956Y-127954742D01*
X43051956Y-127954742D02*
X42651956Y-129154742D01*
X42023385Y-128583314D02*
X42023385Y-129154742D01*
X42423385Y-127954742D02*
X42023385Y-128583314D01*
X42023385Y-128583314D02*
X41623385Y-127954742D01*
X39909099Y-128526171D02*
X39737671Y-128583314D01*
X39737671Y-128583314D02*
X39680528Y-128640457D01*
X39680528Y-128640457D02*
X39623385Y-128754742D01*
X39623385Y-128754742D02*
X39623385Y-128926171D01*
X39623385Y-128926171D02*
X39680528Y-129040457D01*
X39680528Y-129040457D02*
X39737671Y-129097600D01*
X39737671Y-129097600D02*
X39851956Y-129154742D01*
X39851956Y-129154742D02*
X40309099Y-129154742D01*
X40309099Y-129154742D02*
X40309099Y-127954742D01*
X40309099Y-127954742D02*
X39909099Y-127954742D01*
X39909099Y-127954742D02*
X39794814Y-128011885D01*
X39794814Y-128011885D02*
X39737671Y-128069028D01*
X39737671Y-128069028D02*
X39680528Y-128183314D01*
X39680528Y-128183314D02*
X39680528Y-128297600D01*
X39680528Y-128297600D02*
X39737671Y-128411885D01*
X39737671Y-128411885D02*
X39794814Y-128469028D01*
X39794814Y-128469028D02*
X39909099Y-128526171D01*
X39909099Y-128526171D02*
X40309099Y-128526171D01*
X62073656Y-129154742D02*
X62473656Y-128583314D01*
X62759370Y-129154742D02*
X62759370Y-127954742D01*
X62759370Y-127954742D02*
X62302227Y-127954742D01*
X62302227Y-127954742D02*
X62187942Y-128011885D01*
X62187942Y-128011885D02*
X62130799Y-128069028D01*
X62130799Y-128069028D02*
X62073656Y-128183314D01*
X62073656Y-128183314D02*
X62073656Y-128354742D01*
X62073656Y-128354742D02*
X62130799Y-128469028D01*
X62130799Y-128469028D02*
X62187942Y-128526171D01*
X62187942Y-128526171D02*
X62302227Y-128583314D01*
X62302227Y-128583314D02*
X62759370Y-128583314D01*
X61559370Y-128526171D02*
X61159370Y-128526171D01*
X60987942Y-129154742D02*
X61559370Y-129154742D01*
X61559370Y-129154742D02*
X61559370Y-127954742D01*
X61559370Y-127954742D02*
X60987942Y-127954742D01*
X59902228Y-129154742D02*
X60473656Y-129154742D01*
X60473656Y-129154742D02*
X60473656Y-127954742D01*
X59559370Y-128811885D02*
X58987942Y-128811885D01*
X59673656Y-129154742D02*
X59273656Y-127954742D01*
X59273656Y-127954742D02*
X58873656Y-129154742D01*
X58245085Y-128583314D02*
X58245085Y-129154742D01*
X58645085Y-127954742D02*
X58245085Y-128583314D01*
X58245085Y-128583314D02*
X57845085Y-127954742D01*
X55845085Y-129040457D02*
X55902228Y-129097600D01*
X55902228Y-129097600D02*
X56073656Y-129154742D01*
X56073656Y-129154742D02*
X56187942Y-129154742D01*
X56187942Y-129154742D02*
X56359371Y-129097600D01*
X56359371Y-129097600D02*
X56473656Y-128983314D01*
X56473656Y-128983314D02*
X56530799Y-128869028D01*
X56530799Y-128869028D02*
X56587942Y-128640457D01*
X56587942Y-128640457D02*
X56587942Y-128469028D01*
X56587942Y-128469028D02*
X56530799Y-128240457D01*
X56530799Y-128240457D02*
X56473656Y-128126171D01*
X56473656Y-128126171D02*
X56359371Y-128011885D01*
X56359371Y-128011885D02*
X56187942Y-127954742D01*
X56187942Y-127954742D02*
X56073656Y-127954742D01*
X56073656Y-127954742D02*
X55902228Y-128011885D01*
X55902228Y-128011885D02*
X55845085Y-128069028D01*
X78295356Y-129154742D02*
X78695356Y-128583314D01*
X78981070Y-129154742D02*
X78981070Y-127954742D01*
X78981070Y-127954742D02*
X78523927Y-127954742D01*
X78523927Y-127954742D02*
X78409642Y-128011885D01*
X78409642Y-128011885D02*
X78352499Y-128069028D01*
X78352499Y-128069028D02*
X78295356Y-128183314D01*
X78295356Y-128183314D02*
X78295356Y-128354742D01*
X78295356Y-128354742D02*
X78352499Y-128469028D01*
X78352499Y-128469028D02*
X78409642Y-128526171D01*
X78409642Y-128526171D02*
X78523927Y-128583314D01*
X78523927Y-128583314D02*
X78981070Y-128583314D01*
X77781070Y-128526171D02*
X77381070Y-128526171D01*
X77209642Y-129154742D02*
X77781070Y-129154742D01*
X77781070Y-129154742D02*
X77781070Y-127954742D01*
X77781070Y-127954742D02*
X77209642Y-127954742D01*
X76123928Y-129154742D02*
X76695356Y-129154742D01*
X76695356Y-129154742D02*
X76695356Y-127954742D01*
X75781070Y-128811885D02*
X75209642Y-128811885D01*
X75895356Y-129154742D02*
X75495356Y-127954742D01*
X75495356Y-127954742D02*
X75095356Y-129154742D01*
X74466785Y-128583314D02*
X74466785Y-129154742D01*
X74866785Y-127954742D02*
X74466785Y-128583314D01*
X74466785Y-128583314D02*
X74066785Y-127954742D01*
X72752499Y-129154742D02*
X72752499Y-127954742D01*
X72752499Y-127954742D02*
X72466785Y-127954742D01*
X72466785Y-127954742D02*
X72295356Y-128011885D01*
X72295356Y-128011885D02*
X72181071Y-128126171D01*
X72181071Y-128126171D02*
X72123928Y-128240457D01*
X72123928Y-128240457D02*
X72066785Y-128469028D01*
X72066785Y-128469028D02*
X72066785Y-128640457D01*
X72066785Y-128640457D02*
X72123928Y-128869028D01*
X72123928Y-128869028D02*
X72181071Y-128983314D01*
X72181071Y-128983314D02*
X72295356Y-129097600D01*
X72295356Y-129097600D02*
X72466785Y-129154742D01*
X72466785Y-129154742D02*
X72752499Y-129154742D01*
X94459913Y-129154742D02*
X94859913Y-128583314D01*
X95145627Y-129154742D02*
X95145627Y-127954742D01*
X95145627Y-127954742D02*
X94688484Y-127954742D01*
X94688484Y-127954742D02*
X94574199Y-128011885D01*
X94574199Y-128011885D02*
X94517056Y-128069028D01*
X94517056Y-128069028D02*
X94459913Y-128183314D01*
X94459913Y-128183314D02*
X94459913Y-128354742D01*
X94459913Y-128354742D02*
X94517056Y-128469028D01*
X94517056Y-128469028D02*
X94574199Y-128526171D01*
X94574199Y-128526171D02*
X94688484Y-128583314D01*
X94688484Y-128583314D02*
X95145627Y-128583314D01*
X93945627Y-128526171D02*
X93545627Y-128526171D01*
X93374199Y-129154742D02*
X93945627Y-129154742D01*
X93945627Y-129154742D02*
X93945627Y-127954742D01*
X93945627Y-127954742D02*
X93374199Y-127954742D01*
X92288485Y-129154742D02*
X92859913Y-129154742D01*
X92859913Y-129154742D02*
X92859913Y-127954742D01*
X91945627Y-128811885D02*
X91374199Y-128811885D01*
X92059913Y-129154742D02*
X91659913Y-127954742D01*
X91659913Y-127954742D02*
X91259913Y-129154742D01*
X90631342Y-128583314D02*
X90631342Y-129154742D01*
X91031342Y-127954742D02*
X90631342Y-128583314D01*
X90631342Y-128583314D02*
X90231342Y-127954742D01*
X88917056Y-128526171D02*
X88517056Y-128526171D01*
X88345628Y-129154742D02*
X88917056Y-129154742D01*
X88917056Y-129154742D02*
X88917056Y-127954742D01*
X88917056Y-127954742D02*
X88345628Y-127954742D01*
X110653142Y-129154742D02*
X111053142Y-128583314D01*
X111338856Y-129154742D02*
X111338856Y-127954742D01*
X111338856Y-127954742D02*
X110881713Y-127954742D01*
X110881713Y-127954742D02*
X110767428Y-128011885D01*
X110767428Y-128011885D02*
X110710285Y-128069028D01*
X110710285Y-128069028D02*
X110653142Y-128183314D01*
X110653142Y-128183314D02*
X110653142Y-128354742D01*
X110653142Y-128354742D02*
X110710285Y-128469028D01*
X110710285Y-128469028D02*
X110767428Y-128526171D01*
X110767428Y-128526171D02*
X110881713Y-128583314D01*
X110881713Y-128583314D02*
X111338856Y-128583314D01*
X110138856Y-128526171D02*
X109738856Y-128526171D01*
X109567428Y-129154742D02*
X110138856Y-129154742D01*
X110138856Y-129154742D02*
X110138856Y-127954742D01*
X110138856Y-127954742D02*
X109567428Y-127954742D01*
X108481714Y-129154742D02*
X109053142Y-129154742D01*
X109053142Y-129154742D02*
X109053142Y-127954742D01*
X108138856Y-128811885D02*
X107567428Y-128811885D01*
X108253142Y-129154742D02*
X107853142Y-127954742D01*
X107853142Y-127954742D02*
X107453142Y-129154742D01*
X106824571Y-128583314D02*
X106824571Y-129154742D01*
X107224571Y-127954742D02*
X106824571Y-128583314D01*
X106824571Y-128583314D02*
X106424571Y-127954742D01*
X104710285Y-128526171D02*
X105110285Y-128526171D01*
X105110285Y-129154742D02*
X105110285Y-127954742D01*
X105110285Y-127954742D02*
X104538857Y-127954742D01*
%LPC*%
D11*
%TO.C,TP4*%
X40500000Y-15000000D03*
%TD*%
%TO.C,TP3*%
X122000000Y-24500000D03*
%TD*%
D12*
%TO.C,J4*%
X131600000Y-3800000D03*
D13*
X126600000Y-3800000D03*
X121600000Y-3800000D03*
X116600000Y-3800000D03*
%TD*%
D14*
%TO.C,K2*%
X42614400Y-125810000D03*
X36614400Y-111610000D03*
X48614400Y-111610000D03*
D15*
X36614400Y-123810000D03*
D14*
X48614400Y-123810000D03*
%TD*%
D12*
%TO.C,J30*%
X107595000Y-3750000D03*
D13*
X102595000Y-3750000D03*
X97595000Y-3750000D03*
X92595000Y-3750000D03*
%TD*%
D12*
%TO.C,J5*%
X41000000Y-3800000D03*
D13*
X36000000Y-3800000D03*
X31000000Y-3800000D03*
X26000000Y-3800000D03*
X21000000Y-3800000D03*
X16000000Y-3800000D03*
%TD*%
D16*
%TO.C,C3*%
X19500000Y-66500000D03*
X24500000Y-66500000D03*
%TD*%
D14*
%TO.C,K4*%
X75031900Y-125810000D03*
X69031900Y-111610000D03*
X81031900Y-111610000D03*
D15*
X69031900Y-123810000D03*
D14*
X81031900Y-123810000D03*
%TD*%
D11*
%TO.C,TP2*%
X121500000Y-37500000D03*
%TD*%
D17*
%TO.C,J10*%
X146140000Y-24454300D03*
D13*
X146140000Y-19454300D03*
X146140000Y-14454300D03*
%TD*%
D18*
%TO.C,J41*%
X38109100Y-133610000D03*
D13*
X43109100Y-133610000D03*
X48109100Y-133610000D03*
%TD*%
D18*
%TO.C,J44*%
X86774200Y-133610000D03*
D13*
X91774200Y-133610000D03*
X96774200Y-133610000D03*
%TD*%
D17*
%TO.C,J13*%
X146140000Y-72755100D03*
D13*
X146140000Y-67755100D03*
X146140000Y-62755100D03*
%TD*%
D17*
%TO.C,J14*%
X146140000Y-88855400D03*
D13*
X146140000Y-83855400D03*
X146140000Y-78855400D03*
%TD*%
D19*
%TO.C,J1*%
X8765000Y-52280000D03*
D16*
X8765000Y-49510000D03*
X8765000Y-46740000D03*
X8765000Y-43970000D03*
X8765000Y-41200000D03*
X8765000Y-38430000D03*
X8765000Y-35660000D03*
X8765000Y-32890000D03*
X8765000Y-30120000D03*
X8765000Y-27350000D03*
X8765000Y-24580000D03*
X8765000Y-21810000D03*
X8765000Y-19040000D03*
X5925000Y-50895000D03*
X5925000Y-48125000D03*
X5925000Y-45355000D03*
X5925000Y-42585000D03*
X5925000Y-39815000D03*
X5925000Y-37045000D03*
X5925000Y-34275000D03*
X5925000Y-31505000D03*
X5925000Y-28735000D03*
X5925000Y-25965000D03*
X5925000Y-23195000D03*
X5925000Y-20425000D03*
D20*
X7345000Y-12110000D03*
X7345000Y-59210000D03*
%TD*%
D21*
%TO.C,U13*%
X43500000Y-33500000D03*
D22*
X43500000Y-30960000D03*
X43500000Y-28420000D03*
X43500000Y-25880000D03*
%TD*%
D23*
%TO.C,J60*%
X69115000Y-79895000D03*
D24*
X69115000Y-77355000D03*
X71655000Y-79895000D03*
X71655000Y-77355000D03*
X74195000Y-79895000D03*
X74195000Y-77355000D03*
X76735000Y-79895000D03*
X76735000Y-77355000D03*
X79275000Y-79895000D03*
X79275000Y-77355000D03*
%TD*%
D11*
%TO.C,TP1*%
X118500000Y-37500000D03*
%TD*%
D18*
%TO.C,J45*%
X102996000Y-133610000D03*
D13*
X107996000Y-133610000D03*
X112996000Y-133610000D03*
%TD*%
D17*
%TO.C,J15*%
X146140000Y-104955700D03*
D13*
X146140000Y-99955700D03*
X146140000Y-94955700D03*
%TD*%
D17*
%TO.C,J11*%
X146140000Y-40554600D03*
D13*
X146140000Y-35554600D03*
X146140000Y-30554600D03*
%TD*%
D14*
%TO.C,K3*%
X58823100Y-125810000D03*
X52823100Y-111610000D03*
X64823100Y-111610000D03*
D15*
X52823100Y-123810000D03*
D14*
X64823100Y-123810000D03*
%TD*%
D17*
%TO.C,J12*%
X146140000Y-56654900D03*
D13*
X146140000Y-51654900D03*
X146140000Y-46654900D03*
%TD*%
D11*
%TO.C,TP6*%
X40500000Y-19500000D03*
%TD*%
D14*
%TO.C,K5*%
X91240600Y-125810000D03*
X85240600Y-111610000D03*
X97240600Y-111610000D03*
D15*
X85240600Y-123810000D03*
D14*
X97240600Y-123810000D03*
%TD*%
D17*
%TO.C,J50*%
X146140000Y-123715000D03*
D13*
X146140000Y-118715000D03*
X146140000Y-113715000D03*
%TD*%
D25*
%TO.C,H3*%
X146500000Y-133900000D03*
%TD*%
%TO.C,H1*%
X4000000Y-4000000D03*
%TD*%
%TO.C,H2*%
X146500000Y-4000000D03*
%TD*%
D14*
%TO.C,K1*%
X26405700Y-125810000D03*
X20405700Y-111610000D03*
X32405700Y-111610000D03*
D15*
X20405700Y-123810000D03*
D14*
X32405700Y-123810000D03*
%TD*%
D25*
%TO.C,H4*%
X4000000Y-133900000D03*
%TD*%
D12*
%TO.C,J20*%
X78505000Y-3750000D03*
D13*
X73505000Y-3750000D03*
X68505000Y-3750000D03*
X63505000Y-3750000D03*
X58505000Y-3750000D03*
X53505000Y-3750000D03*
%TD*%
D26*
%TO.C,RV1*%
X36000000Y-18000000D03*
X33460000Y-18000000D03*
X30920000Y-18000000D03*
%TD*%
D19*
%TO.C,J2*%
X8765000Y-115130000D03*
D16*
X8765000Y-112360000D03*
X8765000Y-109590000D03*
X8765000Y-106820000D03*
X8765000Y-104050000D03*
X8765000Y-101280000D03*
X8765000Y-98510000D03*
X8765000Y-95740000D03*
X8765000Y-92970000D03*
X8765000Y-90200000D03*
X8765000Y-87430000D03*
X8765000Y-84660000D03*
X8765000Y-81890000D03*
X5925000Y-113745000D03*
X5925000Y-110975000D03*
X5925000Y-108205000D03*
X5925000Y-105435000D03*
X5925000Y-102665000D03*
X5925000Y-99895000D03*
X5925000Y-97125000D03*
X5925000Y-94355000D03*
X5925000Y-91585000D03*
X5925000Y-88815000D03*
X5925000Y-86045000D03*
X5925000Y-83275000D03*
D20*
X7345000Y-74960000D03*
X7345000Y-122060000D03*
%TD*%
D11*
%TO.C,TP5*%
X43500000Y-15000000D03*
%TD*%
D18*
%TO.C,J43*%
X70552500Y-133610000D03*
D13*
X75552500Y-133610000D03*
X80552500Y-133610000D03*
%TD*%
D18*
%TO.C,J42*%
X54330800Y-133610000D03*
D13*
X59330800Y-133610000D03*
X64330800Y-133610000D03*
%TD*%
D18*
%TO.C,J40*%
X21887400Y-133610000D03*
D13*
X26887400Y-133610000D03*
X31887400Y-133610000D03*
%TD*%
D14*
%TO.C,K6*%
X107449300Y-125810000D03*
X101449300Y-111610000D03*
X113449300Y-111610000D03*
D15*
X101449300Y-123810000D03*
D14*
X113449300Y-123810000D03*
%TD*%
%LPD*%
M02*
