M48
; DRILL file KiCad 10.0.6 date 2026-09-24T15:07:12
; FORMAT={-:-/ absolute / metric / decimal}
; #@! TF.CreationDate,2026-09-24T15:07:12+03:30
; #@! TF.GenerationSoftware,Kicad,Pcbnew,10.0.6
; #@! TF.FileFunction,Plated,1,2,PTH
FMAT,2
METRIC
; #@! TA.AperFunction,Plated,PTH,ViaDrill
T1C0.300
; #@! TA.AperFunction,Plated,PTH,ViaDrill
T2C0.400
; #@! TA.AperFunction,Plated,PTH,ComponentDrill
T3C0.800
; #@! TA.AperFunction,Plated,PTH,ComponentDrill
T4C1.000
; #@! TA.AperFunction,Plated,PTH,ComponentDrill
T5C1.300
; #@! TA.AperFunction,Plated,PTH,ComponentDrill
T6C3.200
%
G90
G05
T1
X3.925Y-11.925
X3.925Y-115.925
X3.925Y-123.925
X5.39Y-52.743
X5.39Y-61.651
X5.39Y-77.401
X10.247Y-17.242
X10.676Y-42.647
X11.925Y-3.925
X11.925Y-11.925
X11.925Y-91.925
X11.925Y-99.925
X11.925Y-107.925
X11.925Y-115.925
X11.925Y-123.925
X11.925Y-131.925
X13.197Y-44.541
X14.24Y-44.361
X18.53Y-42.515
X19.925Y-3.925
X19.925Y-11.925
X19.925Y-83.925
X19.925Y-91.925
X19.925Y-99.925
X19.925Y-107.925
X19.925Y-115.925
X22.46Y-48.125
X23.06Y-73.837
X23.532Y-75.195
X27.925Y-3.925
X27.925Y-11.925
X27.925Y-59.925
X27.925Y-67.925
X27.925Y-83.925
X27.925Y-107.925
X27.925Y-115.925
X27.925Y-123.925
X29.184Y-104.209
X35.543Y-29.108
X35.819Y-2.123
X35.819Y-22.613
X35.925Y-59.925
X35.925Y-67.925
X35.925Y-91.925
X35.925Y-99.925
X35.925Y-107.925
X35.925Y-131.925
X37.435Y-52.191
X37.435Y-62.807
X37.873Y-64.924
X38.395Y-16.47
X38.968Y-22.599
X39.652Y-84.896
X40.522Y-35.735
X41.015Y-16.551
X42.383Y-22.61
X42.727Y-29.389
X43.925Y-3.925
X43.925Y-11.925
X43.925Y-59.925
X43.925Y-67.925
X43.925Y-91.925
X43.925Y-99.925
X43.925Y-107.925
X43.925Y-115.925
X43.926Y-18.069
X45.143Y-58.839
X45.362Y-84.634
X45.422Y-31.139
X45.604Y-88.26
X46.236Y-15.759
X46.701Y-21.216
X46.701Y-22.591
X47.227Y-60.266
X47.407Y-50.707
X47.448Y-66.01
X49.336Y-81.89
X49.594Y-64.078
X49.848Y-22.582
X50.354Y-84.666
X50.998Y-52.287
X51.925Y-11.925
X51.925Y-99.925
X51.925Y-131.925
X52.195Y-60.267
X52.202Y-62.826
X52.213Y-89.207
X52.267Y-36.021
X52.335Y-18.485
X53.952Y-36.629
X54.839Y-26.296
X55.312Y-84.665
X56.536Y-102.24
X57.012Y-19.319
X57.05Y-83.885
X57.354Y-91.909
X59.433Y-89.252
X59.791Y-22.504
X59.827Y-27.584
X59.925Y-59.925
X59.925Y-107.925
X59.925Y-115.925
X60.264Y-67.452
X60.421Y-23.621
X60.773Y-30.386
X60.849Y-81.088
X62.8Y-35.567
X63.031Y-61.764
X63.432Y-104.995
X64.37Y-22.599
X64.696Y-98.414
X64.798Y-36.675
X66.402Y-24.644
X66.443Y-61.828
X67.925Y-11.925
X67.925Y-107.925
X67.925Y-131.925
X68.617Y-90.468
X68.876Y-29.545
X69.709Y-90.105
X71.292Y-98.748
X71.523Y-70.602
X71.71Y-57.197
X72.925Y-64.803
X72.925Y-87.507
X73.513Y-18.232
X73.761Y-28.822
X73.912Y-63.073
X74.092Y-31.152
X75.162Y-87.106
X75.307Y-56.595
X75.925Y-3.925
X75.925Y-11.925
X75.925Y-107.925
X75.925Y-115.925
X76.059Y-90.346
X76.562Y-56.48
X77.681Y-82.192
X77.915Y-62.313
X78.013Y-103.998
X78.267Y-64.814
X78.359Y-87.455
X78.422Y-67.084
X79.244Y-62.312
X79.515Y-64.825
X79.515Y-75.872
X80.158Y-65.621
X80.647Y-21.937
X81.161Y-62.994
X81.357Y-98.754
X81.705Y-64.34
X82.089Y-78.555
X83.925Y-3.925
X83.925Y-11.925
X83.925Y-107.925
X83.925Y-131.925
X84.264Y-64.702
X86.636Y-62.176
X86.691Y-18.271
X88.139Y-61.0
X88.139Y-63.328
X89.004Y-21.935
X89.172Y-83.139
X90.6Y-76.629
X90.636Y-84.638
X91.572Y-84.866
X91.925Y-11.925
X91.925Y-19.925
X91.925Y-27.925
X91.925Y-35.925
X91.925Y-67.925
X91.925Y-91.925
X91.925Y-107.925
X91.925Y-115.925
X93.741Y-105.833
X94.362Y-83.885
X95.001Y-98.764
X99.925Y-3.925
X99.925Y-11.925
X99.925Y-19.925
X99.925Y-67.925
X99.925Y-91.925
X99.925Y-99.925
X99.925Y-107.925
X101.489Y-84.659
X105.148Y-43.233
X106.649Y-84.667
X107.925Y-59.925
X107.925Y-107.925
X107.925Y-115.925
X108.431Y-41.49
X108.931Y-84.834
X109.882Y-90.449
X109.882Y-105.831
X113.41Y-49.752
X115.925Y-27.925
X115.925Y-35.925
X115.925Y-59.925
X115.925Y-67.925
X115.925Y-91.925
X115.925Y-99.925
X115.925Y-107.925
X115.925Y-123.925
X115.925Y-131.925
X116.614Y-43.735
X116.614Y-46.414
X117.081Y-33.519
X117.992Y-38.387
X118.424Y-43.062
X119.069Y-51.696
X119.076Y-44.73
X119.08Y-50.67
X119.087Y-84.343
X119.094Y-42.345
X119.098Y-83.52
X119.273Y-79.689
X121.759Y-48.304
X122.195Y-80.294
X123.118Y-47.349
X123.118Y-81.564
X123.489Y-116.79
X123.925Y-3.925
X123.925Y-19.925
X123.925Y-27.925
X123.925Y-35.925
X123.925Y-59.925
X123.925Y-67.925
X123.925Y-91.925
X123.925Y-99.925
X123.925Y-107.925
X123.925Y-131.925
X124.021Y-33.524
X124.41Y-116.841
X124.41Y-125.566
X125.156Y-124.296
X125.766Y-40.981
X125.797Y-49.889
X125.971Y-45.408
X127.982Y-110.329
X127.982Y-120.316
X128.781Y-110.672
X128.783Y-123.026
X129.408Y-53.365
X131.831Y-54.165
X131.925Y-11.925
X131.925Y-19.925
X131.925Y-27.925
X131.925Y-35.925
X131.925Y-131.925
X132.178Y-42.505
X133.73Y-125.564
X133.733Y-126.836
X135.08Y-51.159
X135.09Y-46.089
X135.099Y-43.521
X135.219Y-84.104
X135.444Y-81.564
X136.816Y-47.331
X137.308Y-86.58
X139.925Y-3.925
X139.925Y-11.925
X139.925Y-19.925
X139.925Y-27.925
X139.925Y-35.925
X139.925Y-43.925
X139.925Y-59.925
X139.925Y-67.925
X139.925Y-75.925
X139.925Y-91.925
X139.925Y-107.925
X139.925Y-115.925
X139.925Y-131.925
X147.925Y-11.925
X147.925Y-27.925
X147.925Y-43.925
X147.925Y-59.925
X147.925Y-75.925
X147.925Y-91.925
X147.925Y-107.925
X147.925Y-115.925
X147.925Y-131.925
T2
X41.178Y-106.205
X48.657Y-37.87
X48.657Y-54.258
X56.376Y-105.937
X57.413Y-94.235
X70.226Y-66.374
X74.243Y-106.146
X74.78Y-60.965
X87.668Y-104.1
X87.749Y-90.356
X101.04Y-36.155
X102.95Y-36.128
X104.875Y-104.003
X104.962Y-31.241
X104.962Y-42.221
X107.759Y-87.495
X107.98Y-36.119
X111.39Y-13.45
X111.895Y-36.515
X113.265Y-32.75
X113.527Y-23.162
X114.746Y-38.488
X122.963Y-121.507
X125.831Y-39.567
X128.442Y-77.11
X129.375Y-19.035
T3
X19.5Y-66.5
X24.5Y-66.5
T4
X5.925Y-20.425
X5.925Y-23.195
X5.925Y-25.965
X5.925Y-28.735
X5.925Y-31.505
X5.925Y-34.275
X5.925Y-37.045
X5.925Y-39.815
X5.925Y-42.585
X5.925Y-45.355
X5.925Y-48.125
X5.925Y-50.895
X5.925Y-83.275
X5.925Y-86.045
X5.925Y-88.815
X5.925Y-91.585
X5.925Y-94.355
X5.925Y-97.125
X5.925Y-99.895
X5.925Y-102.665
X5.925Y-105.435
X5.925Y-108.205
X5.925Y-110.975
X5.925Y-113.745
X8.765Y-19.04
X8.765Y-21.81
X8.765Y-24.58
X8.765Y-27.35
X8.765Y-30.12
X8.765Y-32.89
X8.765Y-35.66
X8.765Y-38.43
X8.765Y-41.2
X8.765Y-43.97
X8.765Y-46.74
X8.765Y-49.51
X8.765Y-52.28
X8.765Y-81.89
X8.765Y-84.66
X8.765Y-87.43
X8.765Y-90.2
X8.765Y-92.97
X8.765Y-95.74
X8.765Y-98.51
X8.765Y-101.28
X8.765Y-104.05
X8.765Y-106.82
X8.765Y-109.59
X8.765Y-112.36
X8.765Y-115.13
X69.115Y-77.355
X69.115Y-79.895
X71.655Y-77.355
X71.655Y-79.895
X74.195Y-77.355
X74.195Y-79.895
X76.735Y-77.355
X76.735Y-79.895
X79.275Y-77.355
X79.275Y-79.895
T5
X20.406Y-111.61
X20.406Y-123.81
X21.887Y-133.61
X26.406Y-125.81
X26.887Y-133.61
X31.887Y-133.61
X32.406Y-111.61
X32.406Y-123.81
X36.614Y-111.61
X36.614Y-123.81
X38.109Y-133.61
X42.614Y-125.81
X43.109Y-133.61
X48.109Y-133.61
X48.614Y-111.61
X48.614Y-123.81
X52.823Y-111.61
X52.823Y-123.81
X53.505Y-3.75
X54.331Y-133.61
X58.505Y-3.75
X58.823Y-125.81
X59.331Y-133.61
X63.505Y-3.75
X64.331Y-133.61
X64.823Y-111.61
X64.823Y-123.81
X68.505Y-3.75
X69.032Y-111.61
X69.032Y-123.81
X70.552Y-133.61
X73.505Y-3.75
X75.032Y-125.81
X75.552Y-133.61
X78.505Y-3.75
X80.552Y-133.61
X81.032Y-111.61
X81.032Y-123.81
X85.241Y-111.61
X85.241Y-123.81
X86.774Y-133.61
X91.241Y-125.81
X91.774Y-133.61
X92.595Y-3.75
X96.774Y-133.61
X97.241Y-111.61
X97.241Y-123.81
X97.595Y-3.75
X101.449Y-111.61
X101.449Y-123.81
X102.595Y-3.75
X102.996Y-133.61
X107.449Y-125.81
X107.595Y-3.75
X107.996Y-133.61
X112.996Y-133.61
X113.449Y-111.61
X113.449Y-123.81
X114.86Y-3.75
X119.86Y-3.75
X126.595Y-3.75
X131.595Y-3.75
X146.14Y-14.454
X146.14Y-19.454
X146.14Y-24.454
X146.14Y-30.555
X146.14Y-35.555
X146.14Y-40.555
X146.14Y-46.655
X146.14Y-51.655
X146.14Y-56.655
X146.14Y-62.755
X146.14Y-67.755
X146.14Y-72.755
X146.14Y-78.855
X146.14Y-83.855
X146.14Y-88.855
X146.14Y-94.956
X146.14Y-99.956
X146.14Y-104.956
X146.14Y-113.715
X146.14Y-118.715
X146.14Y-123.715
T6
X7.345Y-12.11
X7.345Y-59.21
X7.345Y-74.96
X7.345Y-122.06
M30
