%TF.GenerationSoftware,KiCad,Pcbnew,10.0.6*%
%TF.CreationDate,2026-09-24T15:07:12+03:30*%
%TF.ProjectId,MACH3SIMPLE,4d414348-3353-4494-9d50-4c452e6b6963,rev?*%
%TF.SameCoordinates,Original*%
%TF.FileFunction,Soldermask,Top*%
%TF.FilePolarity,Negative*%
%FSLAX46Y46*%
G04 Gerber Fmt 4.6, Leading zero omitted, Abs format (unit mm)*
G04 Created by KiCad (PCBNEW 10.0.6) date 2026-09-24 15:07:12*
%MOMM*%
%LPD*%
G01*
G04 APERTURE LIST*
G04 Aperture macros list*
%AMRoundRect*
0 Rectangle with rounded corners*
0 $1 Rounding radius*
0 $2 $3 $4 $5 $6 $7 $8 $9 X,Y pos of 4 corners*
0 Add a 4 corners polygon primitive as box body*
4,1,4,$2,$3,$4,$5,$6,$7,$8,$9,$2,$3,0*
0 Add four circle primitives for the rounded corners*
1,1,$1+$1,$2,$3*
1,1,$1+$1,$4,$5*
1,1,$1+$1,$6,$7*
1,1,$1+$1,$8,$9*
0 Add four rect primitives between the rounded corners*
20,1,$1+$1,$2,$3,$4,$5,0*
20,1,$1+$1,$4,$5,$6,$7,0*
20,1,$1+$1,$6,$7,$8,$9,0*
20,1,$1+$1,$8,$9,$2,$3,0*%
G04 Aperture macros list end*
%ADD10RoundRect,0.200000X-0.200000X-0.275000X0.200000X-0.275000X0.200000X0.275000X-0.200000X0.275000X0*%
%ADD11RoundRect,0.250000X-0.312500X-0.625000X0.312500X-0.625000X0.312500X0.625000X-0.312500X0.625000X0*%
%ADD12RoundRect,0.225000X-0.225000X-0.250000X0.225000X-0.250000X0.225000X0.250000X-0.225000X0.250000X0*%
%ADD13RoundRect,0.225000X-0.225000X-0.375000X0.225000X-0.375000X0.225000X0.375000X-0.225000X0.375000X0*%
%ADD14RoundRect,0.250000X1.050000X1.050000X-1.050000X1.050000X-1.050000X-1.050000X1.050000X-1.050000X0*%
%ADD15C,2.600000*%
%ADD16C,2.500000*%
%ADD17RoundRect,0.250000X1.000000X-1.000000X1.000000X1.000000X-1.000000X1.000000X-1.000000X-1.000000X0*%
%ADD18RoundRect,0.250000X-1.500000X-0.550000X1.500000X-0.550000X1.500000X0.550000X-1.500000X0.550000X0*%
%ADD19C,3.200000*%
%ADD20RoundRect,0.218750X-0.218750X-0.256250X0.218750X-0.256250X0.218750X0.256250X-0.218750X0.256250X0*%
%ADD21RoundRect,0.225000X-0.250000X0.225000X-0.250000X-0.225000X0.250000X-0.225000X0.250000X0.225000X0*%
%ADD22R,0.800000X0.500000*%
%ADD23R,0.800000X0.400000*%
%ADD24RoundRect,0.150000X-0.587500X-0.150000X0.587500X-0.150000X0.587500X0.150000X-0.587500X0.150000X0*%
%ADD25RoundRect,0.137500X-0.600000X-0.137500X0.600000X-0.137500X0.600000X0.137500X-0.600000X0.137500X0*%
%ADD26RoundRect,0.137500X-0.137500X-0.600000X0.137500X-0.600000X0.137500X0.600000X-0.137500X0.600000X0*%
%ADD27RoundRect,0.250000X1.050000X-1.050000X1.050000X1.050000X-1.050000X1.050000X-1.050000X-1.050000X0*%
%ADD28C,1.600000*%
%ADD29RoundRect,0.150000X-0.825000X-0.150000X0.825000X-0.150000X0.825000X0.150000X-0.825000X0.150000X0*%
%ADD30RoundRect,0.250000X-1.050000X-1.050000X1.050000X-1.050000X1.050000X1.050000X-1.050000X1.050000X0*%
%ADD31RoundRect,0.225000X0.225000X0.250000X-0.225000X0.250000X-0.225000X-0.250000X0.225000X-0.250000X0*%
%ADD32RoundRect,0.250000X0.600000X-0.600000X0.600000X0.600000X-0.600000X0.600000X-0.600000X-0.600000X0*%
%ADD33C,1.700000*%
%ADD34R,1.600000X1.600000*%
%ADD35C,4.000000*%
%ADD36RoundRect,0.250000X-1.000000X-0.650000X1.000000X-0.650000X1.000000X0.650000X-1.000000X0.650000X0*%
%ADD37RoundRect,0.150000X-0.875000X-0.150000X0.875000X-0.150000X0.875000X0.150000X-0.875000X0.150000X0*%
%ADD38RoundRect,0.250000X0.350000X-0.450000X0.350000X0.450000X-0.350000X0.450000X-0.350000X-0.450000X0*%
%ADD39RoundRect,0.225000X0.250000X-0.225000X0.250000X0.225000X-0.250000X0.225000X-0.250000X-0.225000X0*%
%ADD40RoundRect,0.250000X-0.375000X-0.625000X0.375000X-0.625000X0.375000X0.625000X-0.375000X0.625000X0*%
G04 APERTURE END LIST*
D10*
%TO.C,R30*%
X41215000Y-30386000D03*
X42865000Y-30386000D03*
%TD*%
D11*
%TO.C,R10*%
X34817500Y-23614000D03*
X37742500Y-23614000D03*
%TD*%
D12*
%TO.C,C22*%
X120254300Y-122146000D03*
X121804300Y-122146000D03*
%TD*%
D13*
%TO.C,D44*%
X89598300Y-104989900D03*
X92898300Y-104989900D03*
%TD*%
D14*
%TO.C,J3*%
X119860000Y-3750000D03*
D15*
X114860000Y-3750000D03*
%TD*%
D10*
%TO.C,R84*%
X58681700Y-93115000D03*
X60331700Y-93115000D03*
%TD*%
D16*
%TO.C,K5*%
X91240600Y-125810000D03*
X85240600Y-111610000D03*
X97240600Y-111610000D03*
D17*
X85240600Y-123810000D03*
D16*
X97240600Y-123810000D03*
%TD*%
D12*
%TO.C,C15*%
X73195000Y-17242000D03*
X74745000Y-17242000D03*
%TD*%
D10*
%TO.C,R43*%
X83828300Y-36758000D03*
X85478300Y-36758000D03*
%TD*%
D18*
%TO.C,C1*%
X106915000Y-21690000D03*
X112315000Y-21690000D03*
%TD*%
D10*
%TO.C,R51*%
X99037500Y-61000000D03*
X100687500Y-61000000D03*
%TD*%
%TO.C,R1*%
X115585000Y-37630000D03*
X117235000Y-37630000D03*
%TD*%
%TO.C,R61*%
X95265000Y-83885000D03*
X96915000Y-83885000D03*
%TD*%
D19*
%TO.C,H3*%
X146500000Y-133900000D03*
%TD*%
%TO.C,H2*%
X146500000Y-4000000D03*
%TD*%
D10*
%TO.C,R71*%
X51435000Y-88500000D03*
X53085000Y-88500000D03*
%TD*%
D20*
%TO.C,D50*%
X34692500Y-83885000D03*
X36267500Y-83885000D03*
%TD*%
D16*
%TO.C,K6*%
X107449300Y-125810000D03*
X101449300Y-111610000D03*
X113449300Y-111610000D03*
D17*
X101449300Y-123810000D03*
D16*
X113449300Y-123810000D03*
%TD*%
D21*
%TO.C,C34*%
X71050000Y-69225000D03*
X71050000Y-70775000D03*
%TD*%
D20*
%TO.C,D54*%
X54532500Y-83885000D03*
X56107500Y-83885000D03*
%TD*%
D22*
%TO.C,RN3*%
X120000000Y-82515000D03*
D23*
X120000000Y-83315000D03*
X120000000Y-84115000D03*
D22*
X120000000Y-84915000D03*
X121800000Y-84915000D03*
D23*
X121800000Y-84115000D03*
X121800000Y-83315000D03*
D22*
X121800000Y-82515000D03*
%TD*%
D16*
%TO.C,K4*%
X75031900Y-125810000D03*
X69031900Y-111610000D03*
X81031900Y-111610000D03*
D17*
X69031900Y-123810000D03*
D16*
X81031900Y-123810000D03*
%TD*%
D24*
%TO.C,Q1*%
X45914600Y-99570000D03*
X45914600Y-101470000D03*
X47789600Y-100520000D03*
%TD*%
D22*
%TO.C,RN2*%
X120000000Y-50135000D03*
D23*
X120000000Y-50935000D03*
X120000000Y-51735000D03*
D22*
X120000000Y-52535000D03*
X121800000Y-52535000D03*
D23*
X121800000Y-51735000D03*
X121800000Y-50935000D03*
D22*
X121800000Y-50135000D03*
%TD*%
D25*
%TO.C,U21*%
X73352500Y-56595000D03*
X73352500Y-57395000D03*
X73352500Y-58195000D03*
X73352500Y-58995000D03*
X73352500Y-59795000D03*
X73352500Y-60595000D03*
X73352500Y-61395000D03*
X73352500Y-62195000D03*
D26*
X74715000Y-63557500D03*
X75515000Y-63557500D03*
X76315000Y-63557500D03*
X77115000Y-63557500D03*
X77915000Y-63557500D03*
X78715000Y-63557500D03*
X79515000Y-63557500D03*
X80315000Y-63557500D03*
D25*
X81677500Y-62195000D03*
X81677500Y-61395000D03*
X81677500Y-60595000D03*
X81677500Y-59795000D03*
X81677500Y-58995000D03*
X81677500Y-58195000D03*
X81677500Y-57395000D03*
X81677500Y-56595000D03*
D26*
X80315000Y-55232500D03*
X79515000Y-55232500D03*
X78715000Y-55232500D03*
X77915000Y-55232500D03*
X77115000Y-55232500D03*
X76315000Y-55232500D03*
X75515000Y-55232500D03*
X74715000Y-55232500D03*
%TD*%
D10*
%TO.C,R72*%
X58681700Y-88500000D03*
X60331700Y-88500000D03*
%TD*%
D27*
%TO.C,J13*%
X146140000Y-72755100D03*
D15*
X146140000Y-67755100D03*
X146140000Y-62755100D03*
%TD*%
D20*
%TO.C,D53*%
X49572500Y-83885000D03*
X51147500Y-83885000D03*
%TD*%
D11*
%TO.C,R3*%
X20537500Y-71130000D03*
X23462500Y-71130000D03*
%TD*%
D28*
%TO.C,C3*%
X19500000Y-66500000D03*
X24500000Y-66500000D03*
%TD*%
D10*
%TO.C,R65*%
X36941700Y-88500000D03*
X38591700Y-88500000D03*
%TD*%
D16*
%TO.C,K1*%
X26405700Y-125810000D03*
X20405700Y-111610000D03*
X32405700Y-111610000D03*
D17*
X20405700Y-123810000D03*
D16*
X32405700Y-123810000D03*
%TD*%
D29*
%TO.C,U11*%
X82570000Y-19100000D03*
X82570000Y-20370000D03*
X82570000Y-21640000D03*
X82570000Y-22910000D03*
X82570000Y-24180000D03*
X82570000Y-25450000D03*
X82570000Y-26720000D03*
X82570000Y-27990000D03*
X87520000Y-27990000D03*
X87520000Y-26720000D03*
X87520000Y-25450000D03*
X87520000Y-24180000D03*
X87520000Y-22910000D03*
X87520000Y-21640000D03*
X87520000Y-20370000D03*
X87520000Y-19100000D03*
%TD*%
D30*
%TO.C,J41*%
X38109100Y-133610000D03*
D15*
X43109100Y-133610000D03*
X48109100Y-133610000D03*
%TD*%
D31*
%TO.C,C30*%
X71560000Y-58195000D03*
X70010000Y-58195000D03*
%TD*%
D10*
%TO.C,R81*%
X94915000Y-88500000D03*
X96565000Y-88500000D03*
%TD*%
D14*
%TO.C,J30*%
X107595000Y-3750000D03*
D15*
X102595000Y-3750000D03*
X97595000Y-3750000D03*
X92595000Y-3750000D03*
%TD*%
D10*
%TO.C,R33*%
X69717500Y-30386000D03*
X71367500Y-30386000D03*
%TD*%
%TO.C,R64*%
X111307500Y-83885000D03*
X112957500Y-83885000D03*
%TD*%
D32*
%TO.C,J60*%
X69115000Y-79895000D03*
D33*
X69115000Y-77355000D03*
X71655000Y-79895000D03*
X71655000Y-77355000D03*
X74195000Y-79895000D03*
X74195000Y-77355000D03*
X76735000Y-79895000D03*
X76735000Y-77355000D03*
X79275000Y-79895000D03*
X79275000Y-77355000D03*
%TD*%
D12*
%TO.C,C10*%
X34705000Y-17242000D03*
X36255000Y-17242000D03*
%TD*%
D10*
%TO.C,R42*%
X73001700Y-36758000D03*
X74651700Y-36758000D03*
%TD*%
D31*
%TO.C,C31*%
X71560000Y-60595000D03*
X70010000Y-60595000D03*
%TD*%
D30*
%TO.C,J43*%
X70552500Y-133610000D03*
D15*
X75552500Y-133610000D03*
X80552500Y-133610000D03*
%TD*%
D34*
%TO.C,J1*%
X8765000Y-52280000D03*
D28*
X8765000Y-49510000D03*
X8765000Y-46740000D03*
X8765000Y-43970000D03*
X8765000Y-41200000D03*
X8765000Y-38430000D03*
X8765000Y-35660000D03*
X8765000Y-32890000D03*
X8765000Y-30120000D03*
X8765000Y-27350000D03*
X8765000Y-24580000D03*
X8765000Y-21810000D03*
X8765000Y-19040000D03*
X5925000Y-50895000D03*
X5925000Y-48125000D03*
X5925000Y-45355000D03*
X5925000Y-42585000D03*
X5925000Y-39815000D03*
X5925000Y-37045000D03*
X5925000Y-34275000D03*
X5925000Y-31505000D03*
X5925000Y-28735000D03*
X5925000Y-25965000D03*
X5925000Y-23195000D03*
X5925000Y-20425000D03*
D35*
X7345000Y-12110000D03*
X7345000Y-59210000D03*
%TD*%
D10*
%TO.C,R34*%
X74858800Y-30386000D03*
X76508800Y-30386000D03*
%TD*%
D27*
%TO.C,J11*%
X146140000Y-40554600D03*
D15*
X146140000Y-35554600D03*
X146140000Y-30554600D03*
%TD*%
D10*
%TO.C,R60*%
X89917500Y-83885000D03*
X91567500Y-83885000D03*
%TD*%
%TO.C,R31*%
X46175000Y-30386000D03*
X47825000Y-30386000D03*
%TD*%
%TO.C,R52*%
X38535000Y-64086700D03*
X40185000Y-64086700D03*
%TD*%
%TO.C,R85*%
X87668300Y-93115000D03*
X89318300Y-93115000D03*
%TD*%
D36*
%TO.C,D2*%
X126430000Y-17530000D03*
X130430000Y-17530000D03*
%TD*%
D12*
%TO.C,C12*%
X44625000Y-17242000D03*
X46175000Y-17242000D03*
%TD*%
D20*
%TO.C,D30*%
X60692500Y-61000000D03*
X62267500Y-61000000D03*
%TD*%
D10*
%TO.C,R80*%
X87668300Y-88500000D03*
X89318300Y-88500000D03*
%TD*%
%TO.C,R83*%
X109408300Y-88500000D03*
X111058300Y-88500000D03*
%TD*%
D12*
%TO.C,C14*%
X66340000Y-17242000D03*
X67890000Y-17242000D03*
%TD*%
D29*
%TO.C,U10*%
X53565000Y-19320000D03*
X53565000Y-20590000D03*
X53565000Y-21860000D03*
X53565000Y-23130000D03*
X53565000Y-24400000D03*
X53565000Y-25670000D03*
X53565000Y-26940000D03*
X53565000Y-28210000D03*
X58515000Y-28210000D03*
X58515000Y-26940000D03*
X58515000Y-25670000D03*
X58515000Y-24400000D03*
X58515000Y-23130000D03*
X58515000Y-21860000D03*
X58515000Y-20590000D03*
X58515000Y-19320000D03*
%TD*%
D10*
%TO.C,R40*%
X51348300Y-36758000D03*
X52998300Y-36758000D03*
%TD*%
D27*
%TO.C,J15*%
X146140000Y-104955700D03*
D15*
X146140000Y-99955700D03*
X146140000Y-94955700D03*
%TD*%
D10*
%TO.C,R46*%
X46671000Y-51443300D03*
X48321000Y-51443300D03*
%TD*%
D19*
%TO.C,H4*%
X4000000Y-133900000D03*
%TD*%
D10*
%TO.C,R73*%
X65928300Y-88500000D03*
X67578300Y-88500000D03*
%TD*%
D29*
%TO.C,U20*%
X127500000Y-121130000D03*
X127500000Y-122400000D03*
X127500000Y-123670000D03*
X127500000Y-124940000D03*
X127500000Y-126210000D03*
X127500000Y-127480000D03*
X127500000Y-128750000D03*
X127500000Y-130020000D03*
X132450000Y-130020000D03*
X132450000Y-128750000D03*
X132450000Y-127480000D03*
X132450000Y-126210000D03*
X132450000Y-124940000D03*
X132450000Y-123670000D03*
X132450000Y-122400000D03*
X132450000Y-121130000D03*
%TD*%
D10*
%TO.C,R75*%
X80421700Y-88500000D03*
X82071700Y-88500000D03*
%TD*%
%TO.C,R45*%
X41679000Y-51443300D03*
X43329000Y-51443300D03*
%TD*%
D11*
%TO.C,R11*%
X41377500Y-23614000D03*
X44302500Y-23614000D03*
%TD*%
D16*
%TO.C,K2*%
X42614400Y-125810000D03*
X36614400Y-111610000D03*
X48614400Y-111610000D03*
D17*
X36614400Y-123810000D03*
D16*
X48614400Y-123810000D03*
%TD*%
D12*
%TO.C,C32*%
X83470000Y-61395000D03*
X85020000Y-61395000D03*
%TD*%
D30*
%TO.C,J42*%
X54330800Y-133610000D03*
D15*
X59330800Y-133610000D03*
X64330800Y-133610000D03*
%TD*%
D11*
%TO.C,R15*%
X34817500Y-30386000D03*
X37742500Y-30386000D03*
%TD*%
D20*
%TO.C,D51*%
X39652500Y-83885000D03*
X41227500Y-83885000D03*
%TD*%
%TO.C,D11*%
X123220000Y-32750000D03*
X124795000Y-32750000D03*
%TD*%
D10*
%TO.C,R70*%
X44188300Y-88500000D03*
X45838300Y-88500000D03*
%TD*%
D27*
%TO.C,J12*%
X146140000Y-56654900D03*
D15*
X146140000Y-51654900D03*
X146140000Y-46654900D03*
%TD*%
D16*
%TO.C,K3*%
X58823100Y-125810000D03*
X52823100Y-111610000D03*
X64823100Y-111610000D03*
D17*
X52823100Y-123810000D03*
D16*
X64823100Y-123810000D03*
%TD*%
D10*
%TO.C,R74*%
X73175000Y-88500000D03*
X74825000Y-88500000D03*
%TD*%
D12*
%TO.C,C13*%
X49585000Y-17242000D03*
X51135000Y-17242000D03*
%TD*%
D37*
%TO.C,U2*%
X124440000Y-77110000D03*
X124440000Y-78380000D03*
X124440000Y-79650000D03*
X124440000Y-80920000D03*
X124440000Y-82190000D03*
X124440000Y-83460000D03*
X124440000Y-84730000D03*
X124440000Y-86000000D03*
X124440000Y-87270000D03*
X124440000Y-88540000D03*
X133740000Y-88540000D03*
X133740000Y-87270000D03*
X133740000Y-86000000D03*
X133740000Y-84730000D03*
X133740000Y-83460000D03*
X133740000Y-82190000D03*
X133740000Y-80920000D03*
X133740000Y-79650000D03*
X133740000Y-78380000D03*
X133740000Y-77110000D03*
%TD*%
D10*
%TO.C,R2*%
X105850000Y-41490000D03*
X107500000Y-41490000D03*
%TD*%
D24*
%TO.C,Q2*%
X57456800Y-99570000D03*
X57456800Y-101470000D03*
X59331800Y-100520000D03*
%TD*%
D27*
%TO.C,J50*%
X146140000Y-123715000D03*
D15*
X146140000Y-118715000D03*
X146140000Y-113715000D03*
%TD*%
D12*
%TO.C,C21*%
X122859600Y-115854000D03*
X124409600Y-115854000D03*
%TD*%
%TO.C,C20*%
X127214600Y-109562000D03*
X128764600Y-109562000D03*
%TD*%
D10*
%TO.C,R82*%
X102161700Y-88500000D03*
X103811700Y-88500000D03*
%TD*%
D11*
%TO.C,R12*%
X47937500Y-23614000D03*
X50862500Y-23614000D03*
%TD*%
D27*
%TO.C,J10*%
X146140000Y-24454300D03*
D15*
X146140000Y-19454300D03*
X146140000Y-14454300D03*
%TD*%
D24*
%TO.C,Q4*%
X80541100Y-99570000D03*
X80541100Y-101470000D03*
X82416100Y-100520000D03*
%TD*%
D31*
%TO.C,C33*%
X67675000Y-65300000D03*
X66125000Y-65300000D03*
%TD*%
D22*
%TO.C,RN1*%
X120000000Y-42135000D03*
D23*
X120000000Y-42935000D03*
X120000000Y-43735000D03*
D22*
X120000000Y-44535000D03*
X121800000Y-44535000D03*
D23*
X121800000Y-43735000D03*
X121800000Y-42935000D03*
D22*
X121800000Y-42135000D03*
%TD*%
D13*
%TO.C,D43*%
X73458300Y-104992200D03*
X76758300Y-104992200D03*
%TD*%
D24*
%TO.C,Q6*%
X103625400Y-99570000D03*
X103625400Y-101470000D03*
X105500400Y-100520000D03*
%TD*%
D13*
%TO.C,D41*%
X41178300Y-104996800D03*
X44478300Y-104996800D03*
%TD*%
D38*
%TO.C,Y1*%
X71050000Y-67500000D03*
X71050000Y-65300000D03*
X69350000Y-65300000D03*
X69350000Y-67500000D03*
%TD*%
D14*
%TO.C,J20*%
X78505000Y-3750000D03*
D15*
X73505000Y-3750000D03*
X68505000Y-3750000D03*
X63505000Y-3750000D03*
X58505000Y-3750000D03*
X53505000Y-3750000D03*
%TD*%
D20*
%TO.C,D10*%
X114737500Y-32750000D03*
X116312500Y-32750000D03*
%TD*%
D14*
%TO.C,J4*%
X131595000Y-3750000D03*
D15*
X126595000Y-3750000D03*
%TD*%
D30*
%TO.C,J45*%
X102996000Y-133610000D03*
D15*
X107996000Y-133610000D03*
X112996000Y-133610000D03*
%TD*%
D39*
%TO.C,C40*%
X133740000Y-38665000D03*
X133740000Y-37115000D03*
%TD*%
D11*
%TO.C,R13*%
X65385800Y-23614000D03*
X68310800Y-23614000D03*
%TD*%
D34*
%TO.C,J2*%
X8765000Y-115130000D03*
D28*
X8765000Y-112360000D03*
X8765000Y-109590000D03*
X8765000Y-106820000D03*
X8765000Y-104050000D03*
X8765000Y-101280000D03*
X8765000Y-98510000D03*
X8765000Y-95740000D03*
X8765000Y-92970000D03*
X8765000Y-90200000D03*
X8765000Y-87430000D03*
X8765000Y-84660000D03*
X8765000Y-81890000D03*
X5925000Y-113745000D03*
X5925000Y-110975000D03*
X5925000Y-108205000D03*
X5925000Y-105435000D03*
X5925000Y-102665000D03*
X5925000Y-99895000D03*
X5925000Y-97125000D03*
X5925000Y-94355000D03*
X5925000Y-91585000D03*
X5925000Y-88815000D03*
X5925000Y-86045000D03*
X5925000Y-83275000D03*
D35*
X7345000Y-74960000D03*
X7345000Y-122060000D03*
%TD*%
D11*
%TO.C,R14*%
X72774200Y-23614000D03*
X75699200Y-23614000D03*
%TD*%
D30*
%TO.C,J40*%
X21887400Y-133610000D03*
D15*
X26887400Y-133610000D03*
X31887400Y-133610000D03*
%TD*%
D12*
%TO.C,C11*%
X39665000Y-17242000D03*
X41215000Y-17242000D03*
%TD*%
D18*
%TO.C,C2*%
X125945000Y-23640000D03*
X131345000Y-23640000D03*
%TD*%
D39*
%TO.C,C42*%
X132450000Y-119620000D03*
X132450000Y-118070000D03*
%TD*%
D40*
%TO.C,F2*%
X107980000Y-37630000D03*
X110780000Y-37630000D03*
%TD*%
D36*
%TO.C,D1*%
X107390000Y-11920000D03*
X111390000Y-11920000D03*
%TD*%
D19*
%TO.C,H1*%
X4000000Y-4000000D03*
%TD*%
D10*
%TO.C,R62*%
X100612500Y-83885000D03*
X102262500Y-83885000D03*
%TD*%
D30*
%TO.C,J44*%
X86774200Y-133610000D03*
D15*
X91774200Y-133610000D03*
X96774200Y-133610000D03*
%TD*%
D10*
%TO.C,R32*%
X64576300Y-30386000D03*
X66226300Y-30386000D03*
%TD*%
D40*
%TO.C,F1*%
X100150000Y-37630000D03*
X102950000Y-37630000D03*
%TD*%
D10*
%TO.C,R44*%
X36687000Y-51443300D03*
X38337000Y-51443300D03*
%TD*%
%TO.C,R35*%
X40521700Y-36758000D03*
X42171700Y-36758000D03*
%TD*%
D37*
%TO.C,U1*%
X124440000Y-40355000D03*
X124440000Y-41625000D03*
X124440000Y-42895000D03*
X124440000Y-44165000D03*
X124440000Y-45435000D03*
X124440000Y-46705000D03*
X124440000Y-47975000D03*
X124440000Y-49245000D03*
X124440000Y-50515000D03*
X124440000Y-51785000D03*
X133740000Y-51785000D03*
X133740000Y-50515000D03*
X133740000Y-49245000D03*
X133740000Y-47975000D03*
X133740000Y-46705000D03*
X133740000Y-45435000D03*
X133740000Y-44165000D03*
X133740000Y-42895000D03*
X133740000Y-41625000D03*
X133740000Y-40355000D03*
%TD*%
D12*
%TO.C,C23*%
X120701000Y-128438000D03*
X122251000Y-128438000D03*
%TD*%
D29*
%TO.C,U3*%
X45945000Y-59641700D03*
X45945000Y-60911700D03*
X45945000Y-62181700D03*
X45945000Y-63451700D03*
X45945000Y-64721700D03*
X45945000Y-65991700D03*
X45945000Y-67261700D03*
X45945000Y-68531700D03*
X50895000Y-68531700D03*
X50895000Y-67261700D03*
X50895000Y-65991700D03*
X50895000Y-64721700D03*
X50895000Y-63451700D03*
X50895000Y-62181700D03*
X50895000Y-60911700D03*
X50895000Y-59641700D03*
%TD*%
D10*
%TO.C,R50*%
X65615000Y-61000000D03*
X67265000Y-61000000D03*
%TD*%
%TO.C,R63*%
X105960000Y-83885000D03*
X107610000Y-83885000D03*
%TD*%
%TO.C,R5*%
X118655000Y-76000000D03*
X120305000Y-76000000D03*
%TD*%
D24*
%TO.C,Q3*%
X68998900Y-99570000D03*
X68998900Y-101470000D03*
X70873900Y-100520000D03*
%TD*%
D10*
%TO.C,R47*%
X51663000Y-51443300D03*
X53313000Y-51443300D03*
%TD*%
D13*
%TO.C,D42*%
X57318300Y-104994500D03*
X60618300Y-104994500D03*
%TD*%
D24*
%TO.C,Q5*%
X92083200Y-99570000D03*
X92083200Y-101470000D03*
X93958200Y-100520000D03*
%TD*%
D39*
%TO.C,C41*%
X133740000Y-75420000D03*
X133740000Y-73870000D03*
%TD*%
D20*
%TO.C,D55*%
X59492500Y-83885000D03*
X61067500Y-83885000D03*
%TD*%
D10*
%TO.C,R41*%
X62175000Y-36758000D03*
X63825000Y-36758000D03*
%TD*%
D36*
%TO.C,D3*%
X103022500Y-32750000D03*
X107022500Y-32750000D03*
%TD*%
D13*
%TO.C,D40*%
X25038300Y-104999000D03*
X28338300Y-104999000D03*
%TD*%
D27*
%TO.C,J14*%
X146140000Y-88855400D03*
D15*
X146140000Y-83855400D03*
X146140000Y-78855400D03*
%TD*%
D20*
%TO.C,D52*%
X44612500Y-83885000D03*
X46187500Y-83885000D03*
%TD*%
D13*
%TO.C,D45*%
X105738300Y-104987600D03*
X109038300Y-104987600D03*
%TD*%
M02*
