M48
; DRILL file KiCad 10.0.6 date 2026-09-25T00:22:29
; FORMAT={-:-/ absolute / metric / decimal}
; #@! TF.CreationDate,2026-09-25T00:22:29+00:00
; #@! TF.GenerationSoftware,Kicad,Pcbnew,10.0.6
; #@! TF.FileFunction,Plated,1,2,PTH
FMAT,2
METRIC
; #@! TA.AperFunction,Plated,PTH,ViaDrill
T1C0.300
; #@! TA.AperFunction,Plated,PTH,ViaDrill
T2C0.400
; #@! TA.AperFunction,Plated,PTH,ComponentDrill
T3C0.700
; #@! TA.AperFunction,Plated,PTH,ComponentDrill
T4C0.800
; #@! TA.AperFunction,Plated,PTH,ComponentDrill
T5C1.000
; #@! TA.AperFunction,Plated,PTH,ComponentDrill
T6C1.300
; #@! TA.AperFunction,Plated,PTH,ComponentDrill
T7C3.200
%
G90
G05
T1
X3.925Y-11.925
X3.925Y-19.925
X3.925Y-27.925
X3.925Y-43.925
X3.925Y-51.925
X3.925Y-59.925
X3.925Y-67.925
X3.925Y-75.925
X3.925Y-123.925
X10.0Y-51.0
X10.232Y-58.362
X11.925Y-3.925
X11.925Y-11.925
X11.925Y-19.925
X11.925Y-115.925
X11.925Y-123.925
X11.925Y-131.925
X15.88Y-40.878
X16.83Y-40.45
X17.2Y-58.2
X17.7Y-50.137
X18.25Y-91.894
X19.388Y-50.771
X19.845Y-32.5
X19.925Y-107.925
X19.925Y-115.925
X20.023Y-18.739
X20.093Y-21.905
X20.797Y-45.183
X20.797Y-86.816
X20.869Y-94.39
X21.503Y-23.728
X21.627Y-93.017
X21.85Y-51.692
X22.211Y-21.269
X22.484Y-88.086
X22.696Y-23.307
X23.77Y-96.8
X24.278Y-17.292
X24.511Y-27.834
X24.931Y-32.459
X24.997Y-44.498
X25.242Y-24.567
X25.722Y-94.478
X27.397Y-48.582
X27.925Y-99.925
X27.925Y-107.925
X27.925Y-115.925
X27.925Y-123.925
X28.77Y-35.242
X29.156Y-104.181
X29.17Y-52.652
X30.188Y-44.665
X31.209Y-25.655
X31.349Y-28.93
X32.558Y-32.487
X34.226Y-60.769
X34.49Y-73.937
X34.692Y-84.886
X34.909Y-32.333
X35.247Y-75.28
X35.925Y-91.925
X35.925Y-99.925
X35.925Y-131.925
X37.649Y-44.524
X39.308Y-30.995
X39.547Y-38.814
X39.652Y-84.897
X40.471Y-69.169
X41.109Y-74.653
X41.809Y-38.828
X42.173Y-83.885
X43.858Y-64.122
X43.925Y-91.925
X43.925Y-107.925
X43.925Y-115.925
X44.313Y-54.413
X44.335Y-55.886
X45.0Y-58.2
X45.071Y-61.024
X45.123Y-87.744
X45.9Y-65.561
X46.541Y-100.52
X48.253Y-66.829
X48.273Y-69.371
X50.127Y-55.886
X50.865Y-65.561
X51.5Y-60.875
X51.8Y-73.4
X51.925Y-27.925
X51.925Y-43.925
X51.925Y-91.925
X51.925Y-99.925
X51.925Y-131.925
X52.213Y-89.278
X52.624Y-75.454
X52.688Y-18.762
X52.688Y-24.784
X52.736Y-83.195
X53.13Y-56.538
X53.36Y-76.625
X53.856Y-75.829
X54.399Y-100.52
X54.399Y-104.209
X54.532Y-80.986
X54.532Y-98.758
X54.77Y-37.425
X56.865Y-84.643
X56.865Y-92.106
X57.346Y-24.469
X57.913Y-18.03
X59.416Y-89.235
X59.583Y-37.336
X59.583Y-52.144
X59.925Y-11.925
X59.925Y-19.925
X59.925Y-27.925
X59.925Y-107.925
X59.925Y-115.925
X61.462Y-60.243
X61.462Y-76.625
X63.432Y-75.829
X63.66Y-21.378
X63.716Y-81.937
X64.121Y-16.902
X64.551Y-81.746
X65.472Y-80.545
X66.442Y-54.221
X66.699Y-85.506
X67.04Y-99.55
X67.053Y-90.295
X67.227Y-60.0
X67.299Y-86.731
X67.925Y-27.925
X67.925Y-43.925
X67.925Y-131.925
X68.74Y-21.687
X69.17Y-52.864
X69.233Y-16.954
X69.608Y-100.52
X69.608Y-104.209
X72.113Y-57.121
X72.435Y-53.142
X72.435Y-89.239
X72.949Y-78.558
X73.38Y-63.073
X74.615Y-56.595
X75.366Y-75.129
X75.442Y-81.217
X75.501Y-64.972
X75.515Y-52.596
X75.515Y-56.497
X75.925Y-3.925
X75.925Y-11.925
X75.925Y-19.925
X75.925Y-27.925
X75.925Y-43.925
X75.925Y-107.925
X75.925Y-115.925
X76.315Y-64.815
X76.366Y-31.477
X76.366Y-35.843
X76.653Y-75.773
X77.709Y-57.605
X79.136Y-57.962
X79.515Y-64.827
X79.688Y-103.817
X80.23Y-21.301
X80.233Y-98.748
X80.394Y-62.311
X80.422Y-87.494
X81.044Y-98.442
X81.095Y-64.338
X81.161Y-62.993
X82.715Y-16.923
X83.029Y-55.596
X83.661Y-99.39
X83.925Y-3.925
X83.925Y-11.925
X83.925Y-27.925
X83.925Y-35.925
X83.925Y-43.925
X83.925Y-107.925
X87.072Y-66.597
X87.744Y-81.072
X89.172Y-83.139
X89.392Y-53.674
X91.925Y-11.925
X91.925Y-27.925
X91.925Y-35.925
X91.925Y-43.925
X91.925Y-107.925
X91.925Y-115.925
X92.478Y-86.305
X93.741Y-105.833
X93.741Y-60.243
X94.438Y-85.291
X94.6Y-73.2
X95.537Y-85.263
X97.909Y-98.765
X98.983Y-98.754
X99.925Y-3.925
X99.925Y-19.925
X99.925Y-35.925
X99.925Y-99.925
X99.925Y-107.925
X99.925Y-131.925
X101.338Y-84.631
X102.87Y-89.263
X105.982Y-53.047
X105.982Y-60.245
X106.8Y-83.0
X106.87Y-84.625
X107.925Y-11.925
X107.925Y-19.925
X107.925Y-27.925
X107.925Y-35.925
X107.925Y-91.925
X107.925Y-99.925
X107.925Y-107.925
X107.925Y-115.925
X108.696Y-45.632
X110.691Y-47.994
X111.343Y-42.345
X111.343Y-50.614
X111.839Y-84.834
X112.861Y-66.597
X115.925Y-27.925
X115.925Y-35.925
X115.925Y-59.925
X115.925Y-83.925
X115.925Y-91.925
X115.925Y-99.925
X115.925Y-107.925
X115.925Y-115.925
X115.925Y-123.925
X115.925Y-131.925
X118.633Y-84.209
X119.004Y-82.515
X119.01Y-43.176
X119.069Y-50.798
X119.084Y-51.698
X119.094Y-83.525
X121.517Y-47.48
X121.681Y-42.942
X121.681Y-83.214
X122.083Y-80.294
X122.349Y-81.564
X122.893Y-48.304
X123.489Y-116.79
X123.925Y-3.925
X123.925Y-19.925
X123.925Y-35.925
X123.925Y-59.925
X123.925Y-67.925
X123.925Y-107.925
X123.925Y-131.925
X124.41Y-116.841
X124.41Y-125.566
X125.156Y-124.296
X125.766Y-49.889
X126.015Y-42.505
X126.015Y-46.07
X127.982Y-110.329
X127.982Y-120.316
X128.781Y-110.672
X128.781Y-123.026
X131.925Y-11.925
X131.925Y-19.925
X131.925Y-27.925
X131.925Y-35.925
X131.925Y-131.925
X132.178Y-42.505
X132.317Y-57.197
X133.727Y-126.836
X134.377Y-125.563
X134.555Y-52.6
X135.08Y-51.159
X135.09Y-46.089
X135.099Y-43.521
X135.219Y-84.104
X135.444Y-81.564
X136.816Y-47.331
X137.308Y-86.58
X139.925Y-3.925
X139.925Y-11.925
X139.925Y-19.925
X139.925Y-27.925
X139.925Y-35.925
X139.925Y-43.925
X139.925Y-59.925
X139.925Y-67.925
X139.925Y-75.925
X139.925Y-91.925
X139.925Y-107.925
X139.925Y-115.925
X139.925Y-131.925
X147.925Y-11.925
X147.925Y-27.925
X147.925Y-43.925
X147.925Y-59.925
X147.925Y-75.925
X147.925Y-91.925
X147.925Y-107.925
X147.925Y-115.925
X147.925Y-131.925
T2
X23.878Y-83.641
X26.098Y-86.579
X30.927Y-48.125
X35.876Y-60.769
X41.178Y-106.205
X45.034Y-39.567
X46.344Y-34.907
X59.115Y-94.235
X59.115Y-104.087
X62.901Y-36.534
X66.238Y-101.472
X67.517Y-66.678
X67.856Y-36.658
X68.365Y-87.576
X74.002Y-35.775
X74.243Y-106.146
X78.206Y-58.995
X78.666Y-36.651
X80.047Y-102.43
X83.672Y-34.923
X85.845Y-17.055
X87.668Y-104.1
X88.122Y-90.256
X93.194Y-102.428
X94.686Y-102.393
X104.802Y-39.567
X104.821Y-104.07
X105.765Y-27.05
X106.788Y-59.312
X107.757Y-87.496
X110.251Y-15.2
X121.003Y-89.734
X121.387Y-81.571
X122.807Y-42.368
X122.809Y-52.535
X122.833Y-121.507
X122.967Y-77.762
X123.124Y-17.276
X130.88Y-32.982
T3
X43.5Y-25.88
X43.5Y-28.42
X43.5Y-30.96
X43.5Y-33.5
T4
X19.5Y-66.5
X24.5Y-66.5
X30.92Y-18.0
X33.46Y-18.0
X36.0Y-18.0
T5
X5.925Y-20.425
X5.925Y-23.195
X5.925Y-25.965
X5.925Y-28.735
X5.925Y-31.505
X5.925Y-34.275
X5.925Y-37.045
X5.925Y-39.815
X5.925Y-42.585
X5.925Y-45.355
X5.925Y-48.125
X5.925Y-50.895
X5.925Y-83.275
X5.925Y-86.045
X5.925Y-88.815
X5.925Y-91.585
X5.925Y-94.355
X5.925Y-97.125
X5.925Y-99.895
X5.925Y-102.665
X5.925Y-105.435
X5.925Y-108.205
X5.925Y-110.975
X5.925Y-113.745
X8.765Y-19.04
X8.765Y-21.81
X8.765Y-24.58
X8.765Y-27.35
X8.765Y-30.12
X8.765Y-32.89
X8.765Y-35.66
X8.765Y-38.43
X8.765Y-41.2
X8.765Y-43.97
X8.765Y-46.74
X8.765Y-49.51
X8.765Y-52.28
X8.765Y-81.89
X8.765Y-84.66
X8.765Y-87.43
X8.765Y-90.2
X8.765Y-92.97
X8.765Y-95.74
X8.765Y-98.51
X8.765Y-101.28
X8.765Y-104.05
X8.765Y-106.82
X8.765Y-109.59
X8.765Y-112.36
X8.765Y-115.13
X40.5Y-15.0
X40.5Y-19.5
X43.5Y-15.0
X69.115Y-77.355
X69.115Y-79.895
X71.655Y-77.355
X71.655Y-79.895
X74.195Y-77.355
X74.195Y-79.895
X76.735Y-77.355
X76.735Y-79.895
X79.275Y-77.355
X79.275Y-79.895
X118.5Y-37.5
X121.5Y-37.5
X122.0Y-24.5
T6
X16.0Y-3.8
X20.406Y-111.61
X20.406Y-123.81
X21.0Y-3.8
X21.887Y-133.61
X26.0Y-3.8
X26.406Y-125.81
X26.887Y-133.61
X31.0Y-3.8
X31.887Y-133.61
X32.406Y-111.61
X32.406Y-123.81
X36.0Y-3.8
X36.614Y-111.61
X36.614Y-123.81
X38.109Y-133.61
X41.0Y-3.8
X42.614Y-125.81
X43.109Y-133.61
X48.109Y-133.61
X48.614Y-111.61
X48.614Y-123.81
X52.823Y-111.61
X52.823Y-123.81
X53.505Y-3.75
X54.331Y-133.61
X58.505Y-3.75
X58.823Y-125.81
X59.331Y-133.61
X63.505Y-3.75
X64.331Y-133.61
X64.823Y-111.61
X64.823Y-123.81
X68.505Y-3.75
X69.032Y-111.61
X69.032Y-123.81
X70.552Y-133.61
X73.505Y-3.75
X75.032Y-125.81
X75.552Y-133.61
X78.505Y-3.75
X80.552Y-133.61
X81.032Y-111.61
X81.032Y-123.81
X85.241Y-111.61
X85.241Y-123.81
X86.774Y-133.61
X91.241Y-125.81
X91.774Y-133.61
X92.595Y-3.75
X96.774Y-133.61
X97.241Y-111.61
X97.241Y-123.81
X97.595Y-3.75
X101.449Y-111.61
X101.449Y-123.81
X102.595Y-3.75
X102.996Y-133.61
X107.449Y-125.81
X107.595Y-3.75
X107.996Y-133.61
X112.996Y-133.61
X113.449Y-111.61
X113.449Y-123.81
X116.6Y-3.8
X121.6Y-3.8
X126.6Y-3.8
X131.6Y-3.8
X146.14Y-14.454
X146.14Y-19.454
X146.14Y-24.454
X146.14Y-30.555
X146.14Y-35.555
X146.14Y-40.555
X146.14Y-46.655
X146.14Y-51.655
X146.14Y-56.655
X146.14Y-62.755
X146.14Y-67.755
X146.14Y-72.755
X146.14Y-78.855
X146.14Y-83.855
X146.14Y-88.855
X146.14Y-94.956
X146.14Y-99.956
X146.14Y-104.956
X146.14Y-113.715
X146.14Y-118.715
X146.14Y-123.715
T7
X7.345Y-12.11
X7.345Y-59.21
X7.345Y-74.96
X7.345Y-122.06
M30
