%TF.GenerationSoftware,KiCad,Pcbnew,10.0.6*%
%TF.CreationDate,2026-09-24T22:50:12+00:00*%
%TF.ProjectId,MACH3SIMPLE,4d414348-3353-4494-9d50-4c452e6b6963,rev?*%
%TF.SameCoordinates,Original*%
%TF.FileFunction,Soldermask,Bot*%
%TF.FilePolarity,Negative*%
%FSLAX46Y46*%
G04 Gerber Fmt 4.6, Leading zero omitted, Abs format (unit mm)*
G04 Created by KiCad (PCBNEW 10.0.6) date 2026-09-24 22:50:12*
%MOMM*%
%LPD*%
G01*
G04 APERTURE LIST*
G04 Aperture macros list*
%AMRoundRect*
0 Rectangle with rounded corners*
0 $1 Rounding radius*
0 $2 $3 $4 $5 $6 $7 $8 $9 X,Y pos of 4 corners*
0 Add a 4 corners polygon primitive as box body*
4,1,4,$2,$3,$4,$5,$6,$7,$8,$9,$2,$3,0*
0 Add four circle primitives for the rounded corners*
1,1,$1+$1,$2,$3*
1,1,$1+$1,$4,$5*
1,1,$1+$1,$6,$7*
1,1,$1+$1,$8,$9*
0 Add four rect primitives between the rounded corners*
20,1,$1+$1,$2,$3,$4,$5,0*
20,1,$1+$1,$4,$5,$6,$7,0*
20,1,$1+$1,$6,$7,$8,$9,0*
20,1,$1+$1,$8,$9,$2,$3,0*%
G04 Aperture macros list end*
%ADD10C,2.500000*%
%ADD11RoundRect,0.250000X1.000000X-1.000000X1.000000X1.000000X-1.000000X1.000000X-1.000000X-1.000000X0*%
%ADD12RoundRect,0.250000X-1.050000X-1.050000X1.050000X-1.050000X1.050000X1.050000X-1.050000X1.050000X0*%
%ADD13C,2.600000*%
%ADD14C,3.200000*%
%ADD15RoundRect,0.250000X1.050000X-1.050000X1.050000X1.050000X-1.050000X1.050000X-1.050000X-1.050000X0*%
%ADD16RoundRect,0.250000X1.050000X1.050000X-1.050000X1.050000X-1.050000X-1.050000X1.050000X-1.050000X0*%
%ADD17C,1.440000*%
%ADD18R,1.600000X1.600000*%
%ADD19C,1.600000*%
%ADD20C,4.000000*%
%ADD21R,2.000000X1.500000*%
%ADD22O,2.000000X1.500000*%
%ADD23RoundRect,0.250000X0.600000X-0.600000X0.600000X0.600000X-0.600000X0.600000X-0.600000X-0.600000X0*%
%ADD24C,1.700000*%
G04 APERTURE END LIST*
D10*
%TO.C,K6*%
X107449300Y-125810000D03*
X101449300Y-111610000D03*
X113449300Y-111610000D03*
D11*
X101449300Y-123810000D03*
D10*
X113449300Y-123810000D03*
%TD*%
D12*
%TO.C,J42*%
X54330800Y-133610000D03*
D13*
X59330800Y-133610000D03*
X64330800Y-133610000D03*
%TD*%
D14*
%TO.C,H3*%
X146500000Y-133900000D03*
%TD*%
D12*
%TO.C,J44*%
X86774200Y-133610000D03*
D13*
X91774200Y-133610000D03*
X96774200Y-133610000D03*
%TD*%
D10*
%TO.C,K3*%
X58823100Y-125810000D03*
X52823100Y-111610000D03*
X64823100Y-111610000D03*
D11*
X52823100Y-123810000D03*
D10*
X64823100Y-123810000D03*
%TD*%
D12*
%TO.C,J43*%
X70552500Y-133610000D03*
D13*
X75552500Y-133610000D03*
X80552500Y-133610000D03*
%TD*%
D15*
%TO.C,J50*%
X146140000Y-123715000D03*
D13*
X146140000Y-118715000D03*
X146140000Y-113715000D03*
%TD*%
D16*
%TO.C,J4*%
X131595000Y-3750000D03*
D13*
X126595000Y-3750000D03*
%TD*%
D16*
%TO.C,J20*%
X78505000Y-3750000D03*
D13*
X73505000Y-3750000D03*
X68505000Y-3750000D03*
X63505000Y-3750000D03*
X58505000Y-3750000D03*
X53505000Y-3750000D03*
%TD*%
D10*
%TO.C,K1*%
X26405700Y-125810000D03*
X20405700Y-111610000D03*
X32405700Y-111610000D03*
D11*
X20405700Y-123810000D03*
D10*
X32405700Y-123810000D03*
%TD*%
D15*
%TO.C,J14*%
X146140000Y-88855400D03*
D13*
X146140000Y-83855400D03*
X146140000Y-78855400D03*
%TD*%
D12*
%TO.C,J41*%
X38109100Y-133610000D03*
D13*
X43109100Y-133610000D03*
X48109100Y-133610000D03*
%TD*%
D16*
%TO.C,J5*%
X37000000Y-3800000D03*
D13*
X32000000Y-3800000D03*
X27000000Y-3800000D03*
X22000000Y-3800000D03*
X17000000Y-3800000D03*
%TD*%
D15*
%TO.C,J13*%
X146140000Y-72755100D03*
D13*
X146140000Y-67755100D03*
X146140000Y-62755100D03*
%TD*%
D15*
%TO.C,J10*%
X146140000Y-24454300D03*
D13*
X146140000Y-19454300D03*
X146140000Y-14454300D03*
%TD*%
D10*
%TO.C,K5*%
X91240600Y-125810000D03*
X85240600Y-111610000D03*
X97240600Y-111610000D03*
D11*
X85240600Y-123810000D03*
D10*
X97240600Y-123810000D03*
%TD*%
D15*
%TO.C,J15*%
X146140000Y-104955700D03*
D13*
X146140000Y-99955700D03*
X146140000Y-94955700D03*
%TD*%
D17*
%TO.C,RV1*%
X36000000Y-18000000D03*
X33460000Y-18000000D03*
X30920000Y-18000000D03*
%TD*%
D15*
%TO.C,J11*%
X146140000Y-40554600D03*
D13*
X146140000Y-35554600D03*
X146140000Y-30554600D03*
%TD*%
D14*
%TO.C,H2*%
X146500000Y-4000000D03*
%TD*%
%TO.C,H4*%
X4000000Y-133900000D03*
%TD*%
%TO.C,H1*%
X4000000Y-4000000D03*
%TD*%
D10*
%TO.C,K4*%
X75031900Y-125810000D03*
X69031900Y-111610000D03*
X81031900Y-111610000D03*
D11*
X69031900Y-123810000D03*
D10*
X81031900Y-123810000D03*
%TD*%
%TO.C,K2*%
X42614400Y-125810000D03*
X36614400Y-111610000D03*
X48614400Y-111610000D03*
D11*
X36614400Y-123810000D03*
D10*
X48614400Y-123810000D03*
%TD*%
D18*
%TO.C,J2*%
X8765000Y-115130000D03*
D19*
X8765000Y-112360000D03*
X8765000Y-109590000D03*
X8765000Y-106820000D03*
X8765000Y-104050000D03*
X8765000Y-101280000D03*
X8765000Y-98510000D03*
X8765000Y-95740000D03*
X8765000Y-92970000D03*
X8765000Y-90200000D03*
X8765000Y-87430000D03*
X8765000Y-84660000D03*
X8765000Y-81890000D03*
X5925000Y-113745000D03*
X5925000Y-110975000D03*
X5925000Y-108205000D03*
X5925000Y-105435000D03*
X5925000Y-102665000D03*
X5925000Y-99895000D03*
X5925000Y-97125000D03*
X5925000Y-94355000D03*
X5925000Y-91585000D03*
X5925000Y-88815000D03*
X5925000Y-86045000D03*
X5925000Y-83275000D03*
D20*
X7345000Y-74960000D03*
X7345000Y-122060000D03*
%TD*%
D12*
%TO.C,J40*%
X21887400Y-133610000D03*
D13*
X26887400Y-133610000D03*
X31887400Y-133610000D03*
%TD*%
D15*
%TO.C,J12*%
X146140000Y-56654900D03*
D13*
X146140000Y-51654900D03*
X146140000Y-46654900D03*
%TD*%
D19*
%TO.C,C3*%
X19500000Y-66500000D03*
X24500000Y-66500000D03*
%TD*%
D18*
%TO.C,J1*%
X8765000Y-52280000D03*
D19*
X8765000Y-49510000D03*
X8765000Y-46740000D03*
X8765000Y-43970000D03*
X8765000Y-41200000D03*
X8765000Y-38430000D03*
X8765000Y-35660000D03*
X8765000Y-32890000D03*
X8765000Y-30120000D03*
X8765000Y-27350000D03*
X8765000Y-24580000D03*
X8765000Y-21810000D03*
X8765000Y-19040000D03*
X5925000Y-50895000D03*
X5925000Y-48125000D03*
X5925000Y-45355000D03*
X5925000Y-42585000D03*
X5925000Y-39815000D03*
X5925000Y-37045000D03*
X5925000Y-34275000D03*
X5925000Y-31505000D03*
X5925000Y-28735000D03*
X5925000Y-25965000D03*
X5925000Y-23195000D03*
X5925000Y-20425000D03*
D20*
X7345000Y-12110000D03*
X7345000Y-59210000D03*
%TD*%
D21*
%TO.C,U13*%
X43500000Y-33500000D03*
D22*
X43500000Y-30960000D03*
X43500000Y-28420000D03*
X43500000Y-25880000D03*
%TD*%
D23*
%TO.C,J60*%
X69115000Y-79895000D03*
D24*
X69115000Y-77355000D03*
X71655000Y-79895000D03*
X71655000Y-77355000D03*
X74195000Y-79895000D03*
X74195000Y-77355000D03*
X76735000Y-79895000D03*
X76735000Y-77355000D03*
X79275000Y-79895000D03*
X79275000Y-77355000D03*
%TD*%
D12*
%TO.C,J45*%
X102996000Y-133610000D03*
D13*
X107996000Y-133610000D03*
X112996000Y-133610000D03*
%TD*%
D16*
%TO.C,J30*%
X107595000Y-3750000D03*
D13*
X102595000Y-3750000D03*
X97595000Y-3750000D03*
X92595000Y-3750000D03*
%TD*%
M02*
